<?xml version="1.0" encoding="UTF-8" standalone="no"?>
<svg
   viewBox="0 0 80 100"
   version="1.1"
   id="svg17"
   sodipodi:docname="cauth-logo.svg"
   xml:space="preserve"
   inkscape:version="1.2.2 (b0a84865, 2022-12-01)"
   inkscape:export-filename="cauth-logo_512x512.png"
   inkscape:export-xdpi="514.02582"
   inkscape:export-ydpi="514.02582"
   width="80"
   height="100"
   xmlns:inkscape="http://www.inkscape.org/namespaces/inkscape"
   xmlns:sodipodi="http://sodipodi.sourceforge.net/DTD/sodipodi-0.dtd"
   xmlns="http://www.w3.org/2000/svg"
   xmlns:svg="http://www.w3.org/2000/svg"><defs
     id="defs21"><rect
       x="44.246128"
       y="118.22012"
       width="112.45891"
       height="26.501587"
       id="rect1369" /></defs><sodipodi:namedview
     id="namedview19"
     pagecolor="#ffffff"
     bordercolor="#000000"
     borderopacity="0.25"
     inkscape:showpageshadow="2"
     inkscape:pageopacity="0.0"
     inkscape:pagecheckerboard="0"
     inkscape:deskcolor="#d1d1d1"
     showgrid="false"
     inkscape:zoom="2.5380426"
     inkscape:cx="94.364057"
     inkscape:cy="69.541779"
     inkscape:window-width="1800"
     inkscape:window-height="1097"
     inkscape:window-x="1440"
     inkscape:window-y="2204"
     inkscape:window-maximized="0"
     inkscape:current-layer="svg17" /><!-- Background shield shape --><!-- Cardano-inspired symbol --><!-- Key hole --><path
     d="m 45.726709,40.512426 c 0,-3.096571 -2.51941,-5.615385 -5.61537,-5.615385 -3.095953,0 -5.615389,2.518814 -5.615389,5.615385 0,1.755743 0.814858,3.39294 2.198108,4.453617 l -1.669016,11.768598 h 10.172547 l -1.66895,-11.768598 c 1.3832,-1.060677 2.19807,-2.697874 2.19807,-4.453617 z m -1.96659,14.97435 h -7.297543 l 1.576053,-11.112217 -0.32943,-0.217753 c -1.23102,-0.811736 -1.965384,-2.174402 -1.965384,-3.64438 0,-2.407757 1.959141,-4.36752 4.367524,-4.36752 2.4084,0 4.36756,1.959763 4.36756,4.36752 0,1.469978 -0.7344,2.832644 -1.96482,3.645003 l -0.32943,0.217753 z"
     fill="#1565c0"
     id="path13"
     style="fill:#0033ad;fill-opacity:1;stroke-width:2;stroke-dasharray:none" /><!-- Text --><text
     x="100"
     y="140"
     font-family="Arial, sans-serif"
     font-weight="bold"
     font-size="24px"
     text-anchor="middle"
     fill="#1565C0"
     id="text15"
     style="fill:#0033ad;fill-opacity:1" /><style
     type="text/css"
     id="style486">
	.st0{fill:#0033AD;}
</style><g
     id="Layer_2_1_"
     transform="matrix(0.15,0,0,0.15,11.986329,19.828341)">
	<g
   id="Layer_1-2">
		
		<path
   class="st0"
   d="m 8.6,165.5 c -4.5,-0.3 -8.4,3.2 -8.6,7.7 -0.2,4.5 3.2,8.4 7.7,8.6 4.5,0.3 8.3,-3.2 8.6,-7.7 0.3,-4.5 -3.2,-8.3 -7.7,-8.6 0,0 0,0 0,0 z"
   id="path490" />
		<path
   class="st0"
   d="m 101.2,25.4 c 4,-2 5.6,-7 3.6,-11 -2,-4 -7,-5.6 -11,-3.6 -4,2 -5.6,6.9 -3.6,10.9 2,4.1 6.9,5.8 11,3.7 -0.1,0 0,0 0,0 z"
   id="path492" />
		<path
   class="st0"
   d="m 126.8,70.1 c 6.2,-3.1 8.7,-10.7 5.6,-16.9 -3.1,-6.2 -10.7,-8.7 -16.9,-5.6 -6.2,3.1 -8.7,10.7 -5.6,16.9 3.1,6.2 10.7,8.7 16.9,5.6 z"
   id="path494" />
		<path
   class="st0"
   d="m 40.6,100.8 c 4.8,3.1 11.2,1.8 14.4,-3 3.1,-4.8 1.8,-11.2 -3,-14.4 -4.8,-3.1 -11.2,-1.8 -14.4,3 0,0 0,0 0,0 -3.2,4.8 -1.8,11.3 3,14.4 z"
   id="path496" />
		<path
   class="st0"
   d="m 55.9,161 c -7,-0.4 -12.9,4.9 -13.3,11.9 -0.4,7 4.9,12.9 11.9,13.3 7,0.4 12.9,-4.9 13.3,-11.9 0,0 0,0 0,0 0.4,-6.9 -4.9,-12.9 -11.9,-13.3 z"
   id="path498" />
		<path
   class="st0"
   d="m 42,245.7 c -5.1,2.6 -7.2,8.8 -4.6,14 2.6,5.1 8.8,7.2 14,4.6 5.1,-2.6 7.2,-8.8 4.6,-14 0,0 0,0 0,0 -2.6,-5.1 -8.9,-7.2 -14,-4.6 0,0 0,0 0,0 z"
   id="path500" />
		<path
   class="st0"
   d="m 91,134.9 c 6.9,4.5 16.1,2.6 20.5,-4.3 4.5,-6.9 2.6,-16.1 -4.3,-20.5 -6.9,-4.5 -16.1,-2.6 -20.5,4.3 -4.5,6.8 -2.6,16 4.3,20.5 0,0 0,0 0,0 z"
   id="path502" />
		<path
   class="st0"
   d="m 246.5,69.1 c 5.8,3.8 13.7,2.2 17.5,-3.6 3.8,-5.8 2.2,-13.7 -3.6,-17.5 -5.8,-3.8 -13.7,-2.2 -17.5,3.6 0,0 0,0 0,0 -3.9,5.9 -2.3,13.7 3.6,17.5 0,0 0,0 0,0 z"
   id="path504" />
		<path
   class="st0"
   d="m 272.3,24.6 c 3.8,2.5 8.8,1.4 11.3,-2.4 2.5,-3.8 1.4,-8.8 -2.4,-11.3 -3.8,-2.5 -8.8,-1.4 -11.3,2.3 -2.4,3.8 -1.3,8.9 2.4,11.4 0,0 0,0 0,0 z"
   id="path506" />
		
		
		<path
   class="st0"
   d="m 333,100.8 c 5.1,-2.6 7.1,-8.9 4.5,-14 -2.6,-5.1 -8.9,-7.1 -14,-4.5 -5.1,2.6 -7.1,8.8 -4.6,13.9 2.7,5.1 8.9,7.2 14.1,4.6 0,0 0,0 0,0 z"
   id="path512" />
		<path
   class="st0"
   d="m 269,108.8 c -7.3,3.7 -10.3,12.6 -6.6,19.9 3.7,7.3 12.6,10.3 19.9,6.6 7.3,-3.7 10.3,-12.6 6.6,-19.9 -3.7,-7.3 -12.6,-10.2 -19.9,-6.6 z"
   id="path514" />
		<path
   class="st0"
   d="m 186.5,20.8 c 5.7,0.3 10.6,-4.1 11,-9.8 0.4,-5.7 -4.1,-10.6 -9.8,-11 -5.7,-0.3 -10.6,4 -11,9.7 -0.3,5.8 4.1,10.7 9.8,11.1 0,0 0,0 0,0 z"
   id="path516" />
		<path
   class="st0"
   d="m 186.4,86.1 c 8.2,0.5 15.2,-5.8 15.6,-14 0.5,-8.2 -5.8,-15.2 -14,-15.6 -8.2,-0.5 -15.2,5.8 -15.6,14 -0.4,8.2 5.8,15.2 14,15.6 0,0 0,0 0,0 z"
   id="path518" />
		<path
   class="st0"
   d="m 106,237.7 c 7.3,-3.7 10.3,-12.6 6.6,-19.9 -3.7,-7.3 -12.6,-10.3 -19.9,-6.6 -7.3,3.7 -10.3,12.6 -6.6,19.9 3.7,7.3 12.6,10.3 19.9,6.6 z"
   id="path520" />
		
		
		<path
   class="st0"
   d="m 284,211.6 c -6.9,-4.5 -16.1,-2.6 -20.5,4.3 -4.5,6.9 -2.6,16.1 4.3,20.5 6.9,4.5 16.1,2.6 20.5,-4.3 4.5,-6.8 2.6,-16 -4.3,-20.5 0,0 0,0 0,0 z"
   id="path526" />
		<path
   class="st0"
   d="m 332.4,173.7 c 0.4,-7 -4.9,-12.9 -11.9,-13.3 -7,-0.4 -12.9,4.9 -13.3,11.9 -0.4,7 4.9,12.9 11.9,13.3 0,0 0,0 0,0 6.9,0.4 12.9,-5 13.3,-11.9 z"
   id="path528" />
		<path
   class="st0"
   d="m 367.3,164.7 c -4.5,-0.3 -8.4,3.2 -8.6,7.7 -0.2,4.5 3.2,8.4 7.7,8.6 4.5,0.3 8.3,-3.2 8.6,-7.7 0.2,-4.5 -3.2,-8.3 -7.7,-8.6 z"
   id="path530" />
		<path
   class="st0"
   d="m 334.4,245.7 c -4.8,-3.1 -11.2,-1.8 -14.4,3 -3.1,4.8 -1.8,11.2 3,14.4 4.8,3.1 11.2,1.8 14.4,-3 3.2,-4.8 1.8,-11.3 -3,-14.4 0,0 0,0 0,0 z"
   id="path532" />
		<path
   class="st0"
   d="m 102.6,321.9 c -3.8,-2.5 -8.8,-1.4 -11.3,2.3 -2.5,3.8 -1.4,8.8 2.3,11.3 3.8,2.5 8.8,1.4 11.3,-2.3 0,0 0,0 0,0 2.6,-3.7 1.5,-8.8 -2.3,-11.3 z"
   id="path534" />
		<path
   class="st0"
   d="m 273.8,321.1 c -4,2 -5.6,7 -3.6,11 2,4 7,5.6 11,3.6 4,-2 5.6,-6.9 3.6,-10.9 -2,-4.1 -6.9,-5.8 -11,-3.7 0.1,0 0,0 0,0 z"
   id="path536" />
		
		<path
   class="st0"
   d="m 128.5,277.4 c -5.8,-3.8 -13.7,-2.2 -17.5,3.6 -3.8,5.8 -2.2,13.7 3.6,17.5 5.8,3.8 13.7,2.2 17.5,-3.6 0,0 0,0 0,0 3.9,-5.8 2.3,-13.7 -3.6,-17.5 z"
   id="path540" />
		<path
   class="st0"
   d="m 187.4,325.7 c -5.7,-0.3 -10.6,4.1 -11,9.8 -0.4,5.7 4.1,10.6 9.8,11 5.7,0.3 10.6,-4 11,-9.7 0.3,-5.8 -4.1,-10.7 -9.8,-11.1 0,0 0,0 0,0 z"
   id="path542" />
		<path
   class="st0"
   d="m 187.5,260.4 c -8.2,-0.5 -15.2,5.8 -15.6,14 -0.5,8.2 5.8,15.2 14,15.6 8.2,0.4 15.2,-5.8 15.6,-14 0.5,-8.1 -5.8,-15.2 -14,-15.6 0,0 0,0 0,0 z"
   id="path544" />
		<path
   class="st0"
   d="m 248.2,276.4 c -6.2,3.2 -8.7,10.8 -5.5,17 3.2,6.2 10.8,8.7 17,5.5 6.2,-3.1 8.7,-10.7 5.6,-16.9 -3.2,-6.2 -10.8,-8.8 -17.1,-5.6 0,0 0,0 0,0 z"
   id="path546" />
	</g>
</g><text
     xml:space="preserve"
     id="text1367"
     style="white-space:pre;shape-inside:url(#rect1369);display:inline;fill:#0033ad;fill-opacity:1;stroke:#0033ad;stroke-width:2;stroke-dasharray:none;stroke-opacity:1" /><path
     d="M 77.215289,17.417316 C 61.194829,13.799184 54.571299,11.119422 40.111323,2.8974221 25.651358,11.119422 19.027826,13.799184 3.00737,17.417316 0.10498498,75.334494 37.348681,95.333471 40.111323,96.734261 42.873959,95.333471 80.117659,75.334494 77.215289,17.417316 Z"
     style="fill:none;stroke:#0033ad;stroke-width:1.78648;stroke-linecap:round;stroke-linejoin:round;stroke-dasharray:none;stroke-opacity:1"
     id="path1375" /></svg>
