<?xml version="1.0" encoding="UTF-8" standalone="no"?>
<!DOCTYPE svg PUBLIC "-//W3C//DTD SVG 1.1//EN"
 "http://www.w3.org/Graphics/SVG/1.1/DTD/svg11.dtd">
<!-- Generated by graphviz version 2.43.0 (0)
 -->
<!-- Title: dependency&#45;cruiser output Pages: 1 -->
<svg width="610pt" height="556pt"
 viewBox="0.00 0.00 610.00 556.00" xmlns="http://www.w3.org/2000/svg" xmlns:xlink="http://www.w3.org/1999/xlink">
<g id="graph0" class="graph" transform="scale(1 1) rotate(0) translate(4 552)">
<title>dependency&#45;cruiser output</title>
<polygon fill="white" stroke="transparent" points="-4,4 -4,-552 606,-552 606,4 -4,4"/>
<g id="clust1" class="cluster">
<title>cluster_src</title>
<path fill="#ffffff" stroke="black" stroke-width="2" d="M20,-8C20,-8 582,-8 582,-8 588,-8 594,-14 594,-20 594,-20 594,-528 594,-528 594,-534 588,-540 582,-540 582,-540 20,-540 20,-540 14,-540 8,-534 8,-528 8,-528 8,-20 8,-20 8,-14 14,-8 20,-8"/>
<text text-anchor="middle" x="301" y="-528.8" font-family="Helvetica,sans-Serif" font-weight="bold" font-size="9.00">src</text>
</g>
<g id="clust2" class="cluster">
<title>cluster_src/boot</title>
<path fill="#ffffff" stroke="black" stroke-width="2" d="M172.5,-178C172.5,-178 256.5,-178 256.5,-178 262.5,-178 268.5,-184 268.5,-190 268.5,-190 268.5,-278 268.5,-278 268.5,-284 262.5,-290 256.5,-290 256.5,-290 172.5,-290 172.5,-290 166.5,-290 160.5,-284 160.5,-278 160.5,-278 160.5,-190 160.5,-190 160.5,-184 166.5,-178 172.5,-178"/>
<text text-anchor="middle" x="214.5" y="-278.8" font-family="Helvetica,sans-Serif" font-weight="bold" font-size="9.00">boot</text>
</g>
<g id="clust3" class="cluster">
<title>cluster_src/components</title>
<path fill="#ffffff" stroke="black" stroke-width="2" d="M147,-308C147,-308 387,-308 387,-308 393,-308 399,-314 399,-320 399,-320 399,-438 399,-438 399,-444 393,-450 387,-450 387,-450 147,-450 147,-450 141,-450 135,-444 135,-438 135,-438 135,-320 135,-320 135,-314 141,-308 147,-308"/>
<text text-anchor="middle" x="267" y="-438.8" font-family="Helvetica,sans-Serif" font-weight="bold" font-size="9.00">components</text>
</g>
<g id="clust4" class="cluster">
<title>cluster_src/layouts</title>
<path fill="#ffffff" stroke="black" stroke-width="2" d="M28,-432C28,-432 115,-432 115,-432 121,-432 127,-438 127,-444 127,-444 127,-502 127,-502 127,-508 121,-514 115,-514 115,-514 28,-514 28,-514 22,-514 16,-508 16,-502 16,-502 16,-444 16,-444 16,-438 22,-432 28,-432"/>
<text text-anchor="middle" x="71.5" y="-502.8" font-family="Helvetica,sans-Serif" font-weight="bold" font-size="9.00">layouts</text>
</g>
<g id="clust5" class="cluster">
<title>cluster_src/pages</title>
<path fill="#ffffff" stroke="black" stroke-width="2" d="M30,-282C30,-282 113,-282 113,-282 119,-282 125,-288 125,-294 125,-294 125,-412 125,-412 125,-418 119,-424 113,-424 113,-424 30,-424 30,-424 24,-424 18,-418 18,-412 18,-412 18,-294 18,-294 18,-288 24,-282 30,-282"/>
<text text-anchor="middle" x="71.5" y="-412.8" font-family="Helvetica,sans-Serif" font-weight="bold" font-size="9.00">pages</text>
</g>
<g id="clust6" class="cluster">
<title>cluster_src/router</title>
<path fill="#ffffff" stroke="black" stroke-width="2" d="M317,-71C317,-71 482.5,-71 482.5,-71 488.5,-71 494.5,-77 494.5,-83 494.5,-83 494.5,-171 494.5,-171 494.5,-177 488.5,-183 482.5,-183 482.5,-183 317,-183 317,-183 311,-183 305,-177 305,-171 305,-171 305,-83 305,-83 305,-77 311,-71 317,-71"/>
<text text-anchor="middle" x="399.75" y="-171.8" font-family="Helvetica,sans-Serif" font-weight="bold" font-size="9.00">router</text>
</g>
<g id="clust7" class="cluster">
<title>cluster_src/stores</title>
<path fill="#ffffff" stroke="black" stroke-width="2" d="M419,-191C419,-191 498,-191 498,-191 504,-191 510,-197 510,-203 510,-203 510,-381 510,-381 510,-387 504,-393 498,-393 498,-393 419,-393 419,-393 413,-393 407,-387 407,-381 407,-381 407,-203 407,-203 407,-197 413,-191 419,-191"/>
<text text-anchor="middle" x="458.5" y="-381.8" font-family="Helvetica,sans-Serif" font-weight="bold" font-size="9.00">stores</text>
</g>
<!-- src/._App.vue -->
<g id="node1" class="node">
<title>src/._App.vue</title>
<g id="a_node1"><a xlink:href="src/._App.vue" xlink:title="._App.vue">
<path fill="#ccffcc" stroke="black" d="M96.5,-274C96.5,-274 46.5,-274 46.5,-274 43.5,-274 40.5,-271 40.5,-268 40.5,-268 40.5,-262 40.5,-262 40.5,-259 43.5,-256 46.5,-256 46.5,-256 96.5,-256 96.5,-256 99.5,-256 102.5,-259 102.5,-262 102.5,-262 102.5,-268 102.5,-268 102.5,-271 99.5,-274 96.5,-274"/>
<text text-anchor="start" x="48.5" y="-262.8" font-family="Helvetica,sans-Serif" font-size="9.00">._App.vue</text>
</a>
</g>
</g>
<!-- src/._CAuthMode.ts -->
<g id="node2" class="node">
<title>src/._CAuthMode.ts</title>
<g id="a_node2"><a xlink:href="src/._CAuthMode.ts" xlink:title="._CAuthMode.ts">
<path fill="#ccffcc" stroke="black" d="M109,-244C109,-244 34,-244 34,-244 31,-244 28,-241 28,-238 28,-238 28,-232 28,-232 28,-229 31,-226 34,-226 34,-226 109,-226 109,-226 112,-226 115,-229 115,-232 115,-232 115,-238 115,-238 115,-241 112,-244 109,-244"/>
<text text-anchor="start" x="36" y="-232.8" font-family="Helvetica,sans-Serif" font-size="9.00">._CAuthMode.ts</text>
</a>
</g>
</g>
<!-- src/._env.d.ts -->
<g id="node3" class="node">
<title>src/._env.d.ts</title>
<g id="a_node3"><a xlink:href="src/._env.d.ts" xlink:title="._env.d.ts">
<path fill="#ccffcc" stroke="black" d="M95.5,-214C95.5,-214 47.5,-214 47.5,-214 44.5,-214 41.5,-211 41.5,-208 41.5,-208 41.5,-202 41.5,-202 41.5,-199 44.5,-196 47.5,-196 47.5,-196 95.5,-196 95.5,-196 98.5,-196 101.5,-199 101.5,-202 101.5,-202 101.5,-208 101.5,-208 101.5,-211 98.5,-214 95.5,-214"/>
<text text-anchor="start" x="49.5" y="-202.8" font-family="Helvetica,sans-Serif" font-size="9.00">._env.d.ts</text>
</a>
</g>
</g>
<!-- src/._quasar.d.ts -->
<g id="node4" class="node">
<title>src/._quasar.d.ts</title>
<g id="a_node4"><a xlink:href="src/._quasar.d.ts" xlink:title="._quasar.d.ts">
<path fill="#ccffcc" stroke="black" d="M102.5,-184C102.5,-184 40.5,-184 40.5,-184 37.5,-184 34.5,-181 34.5,-178 34.5,-178 34.5,-172 34.5,-172 34.5,-169 37.5,-166 40.5,-166 40.5,-166 102.5,-166 102.5,-166 105.5,-166 108.5,-169 108.5,-172 108.5,-172 108.5,-178 108.5,-178 108.5,-181 105.5,-184 102.5,-184"/>
<text text-anchor="start" x="42.5" y="-172.8" font-family="Helvetica,sans-Serif" font-size="9.00">._quasar.d.ts</text>
</a>
</g>
</g>
<!-- src/._shims&#45;vue.d.ts -->
<g id="node5" class="node">
<title>src/._shims&#45;vue.d.ts</title>
<g id="a_node5"><a xlink:href="src/._shims-vue.d.ts" xlink:title="._shims&#45;vue.d.ts">
<path fill="#ccffcc" stroke="black" d="M110.5,-154C110.5,-154 32.5,-154 32.5,-154 29.5,-154 26.5,-151 26.5,-148 26.5,-148 26.5,-142 26.5,-142 26.5,-139 29.5,-136 32.5,-136 32.5,-136 110.5,-136 110.5,-136 113.5,-136 116.5,-139 116.5,-142 116.5,-142 116.5,-148 116.5,-148 116.5,-151 113.5,-154 110.5,-154"/>
<text text-anchor="start" x="34.5" y="-142.8" font-family="Helvetica,sans-Serif" font-size="9.00">._shims&#45;vue.d.ts</text>
</a>
</g>
</g>
<!-- src/App.vue -->
<g id="node6" class="node">
<title>src/App.vue</title>
<g id="a_node6"><a xlink:href="src/App.vue" xlink:title="App.vue">
<path fill="#ccffcc" stroke="black" d="M92.5,-124C92.5,-124 50.5,-124 50.5,-124 47.5,-124 44.5,-121 44.5,-118 44.5,-118 44.5,-112 44.5,-112 44.5,-109 47.5,-106 50.5,-106 50.5,-106 92.5,-106 92.5,-106 95.5,-106 98.5,-109 98.5,-112 98.5,-112 98.5,-118 98.5,-118 98.5,-121 95.5,-124 92.5,-124"/>
<text text-anchor="start" x="52.5" y="-112.8" font-family="Helvetica,sans-Serif" font-size="9.00">App.vue</text>
</a>
</g>
</g>
<!-- src/CAuthMode -->
<g id="node7" class="node">
<title>src/CAuthMode</title>
<g id="a_node7"><a xlink:title="CAuthMode">
<path fill="#ffffcc" stroke="black" d="M580,-277C580,-277 524,-277 524,-277 521,-277 518,-274 518,-271 518,-271 518,-265 518,-265 518,-262 521,-259 524,-259 524,-259 580,-259 580,-259 583,-259 586,-262 586,-265 586,-265 586,-271 586,-271 586,-274 583,-277 580,-277"/>
<text text-anchor="start" x="526" y="-265.8" font-family="Helvetica,sans-Serif" font-size="9.00">CAuthMode</text>
</a>
</g>
</g>
<!-- src/CAuthMode.ts -->
<g id="node8" class="node">
<title>src/CAuthMode.ts</title>
<g id="a_node8"><a xlink:href="src/CAuthMode.ts" xlink:title="CAuthMode.ts">
<path fill="#ddfeff" stroke="black" d="M492.5,-423C492.5,-423 424.5,-423 424.5,-423 421.5,-423 418.5,-420 418.5,-417 418.5,-417 418.5,-411 418.5,-411 418.5,-408 421.5,-405 424.5,-405 424.5,-405 492.5,-405 492.5,-405 495.5,-405 498.5,-408 498.5,-411 498.5,-411 498.5,-417 498.5,-417 498.5,-420 495.5,-423 492.5,-423"/>
<text text-anchor="start" x="426.5" y="-411.8" font-family="Helvetica,sans-Serif" font-size="9.00">CAuthMode.ts</text>
</a>
</g>
</g>
<!-- src/boot/._axios.ts -->
<g id="node9" class="node">
<title>src/boot/._axios.ts</title>
<g id="a_node9"><a xlink:href="src/boot/._axios.ts" xlink:title="._axios.ts">
<path fill="#ccffcc" stroke="black" d="M237.5,-264C237.5,-264 191.5,-264 191.5,-264 188.5,-264 185.5,-261 185.5,-258 185.5,-258 185.5,-252 185.5,-252 185.5,-249 188.5,-246 191.5,-246 191.5,-246 237.5,-246 237.5,-246 240.5,-246 243.5,-249 243.5,-252 243.5,-252 243.5,-258 243.5,-258 243.5,-261 240.5,-264 237.5,-264"/>
<text text-anchor="start" x="193.5" y="-252.8" font-family="Helvetica,sans-Serif" font-size="9.00">._axios.ts</text>
</a>
</g>
</g>
<!-- src/boot/axios.ts -->
<g id="node10" class="node">
<title>src/boot/axios.ts</title>
<g id="a_node10"><a xlink:href="src/boot/axios.ts" xlink:title="axios.ts">
<path fill="#ddfeff" stroke="black" d="M235.5,-234C235.5,-234 193.5,-234 193.5,-234 190.5,-234 187.5,-231 187.5,-228 187.5,-228 187.5,-222 187.5,-222 187.5,-219 190.5,-216 193.5,-216 193.5,-216 235.5,-216 235.5,-216 238.5,-216 241.5,-219 241.5,-222 241.5,-222 241.5,-228 241.5,-228 241.5,-231 238.5,-234 235.5,-234"/>
<text text-anchor="start" x="197.5" y="-222.8" font-family="Helvetica,sans-Serif" font-size="9.00">axios.ts</text>
</a>
</g>
</g>
<!-- src/boot/notify&#45;defaults.ts -->
<g id="node11" class="node">
<title>src/boot/notify&#45;defaults.ts</title>
<g id="a_node11"><a xlink:href="src/boot/notify-defaults.ts" xlink:title="notify&#45;defaults.ts">
<path fill="#ccffcc" stroke="black" d="M254.5,-204C254.5,-204 174.5,-204 174.5,-204 171.5,-204 168.5,-201 168.5,-198 168.5,-198 168.5,-192 168.5,-192 168.5,-189 171.5,-186 174.5,-186 174.5,-186 254.5,-186 254.5,-186 257.5,-186 260.5,-189 260.5,-192 260.5,-192 260.5,-198 260.5,-198 260.5,-201 257.5,-204 254.5,-204"/>
<text text-anchor="start" x="176.5" y="-192.8" font-family="Helvetica,sans-Serif" font-size="9.00">notify&#45;defaults.ts</text>
</a>
</g>
</g>
<!-- src/components/SelectTokenModal.vue -->
<g id="node12" class="node">
<title>src/components/SelectTokenModal.vue</title>
<g id="a_node12"><a xlink:href="src/components/SelectTokenModal.vue" xlink:title="SelectTokenModal.vue">
<path fill="#41f083" stroke="black" d="M266.5,-394C266.5,-394 162.5,-394 162.5,-394 159.5,-394 156.5,-391 156.5,-388 156.5,-388 156.5,-382 156.5,-382 156.5,-379 159.5,-376 162.5,-376 162.5,-376 266.5,-376 266.5,-376 269.5,-376 272.5,-379 272.5,-382 272.5,-382 272.5,-388 272.5,-388 272.5,-391 269.5,-394 266.5,-394"/>
<text text-anchor="start" x="164.5" y="-382.8" font-family="Helvetica,sans-Serif" font-size="9.00">SelectTokenModal.vue</text>
</a>
</g>
</g>
<!-- src/stores/cauth -->
<g id="node13" class="node">
<title>src/stores/cauth</title>
<g id="a_node13"><a xlink:title="cauth">
<path fill="#ffffcc" stroke="black" d="M479.5,-367C479.5,-367 437.5,-367 437.5,-367 434.5,-367 431.5,-364 431.5,-361 431.5,-361 431.5,-355 431.5,-355 431.5,-352 434.5,-349 437.5,-349 437.5,-349 479.5,-349 479.5,-349 482.5,-349 485.5,-352 485.5,-355 485.5,-355 485.5,-361 485.5,-361 485.5,-364 482.5,-367 479.5,-367"/>
<text text-anchor="start" x="445" y="-355.8" font-family="Helvetica,sans-Serif" font-size="9.00">cauth</text>
</a>
</g>
</g>
<!-- src/components/SelectTokenModal.vue&#45;&gt;src/stores/cauth -->
<g id="edge1" class="edge">
<title>src/components/SelectTokenModal.vue&#45;&gt;src/stores/cauth</title>
<path fill="none" stroke="#000000" stroke-width="2" stroke-opacity="0.200000" d="M272.54,-378.64C320.16,-373.32 386.33,-365.94 425.25,-361.6"/>
<polygon fill="#000000" fill-opacity="0.200000" stroke="#000000" stroke-width="2" stroke-opacity="0.200000" points="425.53,-363.68 431.26,-360.93 425.07,-359.51 425.53,-363.68"/>
</g>
<!-- src/components/SignInButton.vue -->
<g id="node14" class="node">
<title>src/components/SignInButton.vue</title>
<g id="a_node14"><a xlink:href="src/components/SignInButton.vue" xlink:title="SignInButton.vue">
<path fill="#41f083" stroke="black" d="M256.5,-424C256.5,-424 172.5,-424 172.5,-424 169.5,-424 166.5,-421 166.5,-418 166.5,-418 166.5,-412 166.5,-412 166.5,-409 169.5,-406 172.5,-406 172.5,-406 256.5,-406 256.5,-406 259.5,-406 262.5,-409 262.5,-412 262.5,-412 262.5,-418 262.5,-418 262.5,-421 259.5,-424 256.5,-424"/>
<text text-anchor="start" x="174.5" y="-412.8" font-family="Helvetica,sans-Serif" font-size="9.00">SignInButton.vue</text>
</a>
</g>
</g>
<!-- src/components/SignInButton.vue&#45;&gt;src/stores/cauth -->
<g id="edge3" class="edge">
<title>src/components/SignInButton.vue&#45;&gt;src/stores/cauth</title>
<path fill="none" stroke="#000000" stroke-width="2" stroke-opacity="0.200000" d="M258.4,-405.99C267.52,-404.04 277.08,-401.97 286,-400 336.32,-388.86 349.65,-388.86 399,-374 402.64,-372.91 403.38,-372.14 407,-371 412.89,-369.14 419.23,-367.35 425.36,-365.72"/>
<polygon fill="#000000" fill-opacity="0.200000" stroke="#000000" stroke-width="2" stroke-opacity="0.200000" points="426.12,-367.7 431.4,-364.15 425.06,-363.63 426.12,-367.7"/>
</g>
<!-- src/components/SignInModal.vue -->
<g id="node15" class="node">
<title>src/components/SignInModal.vue</title>
<g id="a_node15"><a xlink:href="src/components/SignInModal.vue" xlink:title="SignInModal.vue">
<path fill="#41f083" stroke="black" d="M385,-423C385,-423 305,-423 305,-423 302,-423 299,-420 299,-417 299,-417 299,-411 299,-411 299,-408 302,-405 305,-405 305,-405 385,-405 385,-405 388,-405 391,-408 391,-411 391,-411 391,-417 391,-417 391,-420 388,-423 385,-423"/>
<text text-anchor="start" x="307" y="-411.8" font-family="Helvetica,sans-Serif" font-size="9.00">SignInModal.vue</text>
</a>
</g>
</g>
<!-- src/components/SignInButton.vue&#45;&gt;src/components/SignInModal.vue -->
<g id="edge2" class="edge">
<title>src/components/SignInButton.vue&#45;&gt;src/components/SignInModal.vue</title>
<path fill="none" stroke="#000000" stroke-width="2" stroke-opacity="0.200000" d="M262.62,-414.63C272.35,-414.56 282.64,-414.48 292.51,-414.4"/>
<polygon fill="#000000" fill-opacity="0.200000" stroke="#000000" stroke-width="2" stroke-opacity="0.200000" points="292.62,-416.5 298.6,-414.35 292.58,-412.3 292.62,-416.5"/>
</g>
<!-- src/components/SignInModal.vue&#45;&gt;src/CAuthMode.ts -->
<g id="edge4" class="edge">
<title>src/components/SignInModal.vue&#45;&gt;src/CAuthMode.ts</title>
<path fill="none" stroke="#000000" stroke-width="2" stroke-opacity="0.200000" d="M391.03,-414C397.97,-414 405.14,-414 412.09,-414"/>
<polygon fill="#000000" fill-opacity="0.200000" stroke="#000000" stroke-width="2" stroke-opacity="0.200000" points="412.4,-416.1 418.4,-414 412.4,-411.9 412.4,-416.1"/>
</g>
<!-- src/components/SignInModal.vue&#45;&gt;src/stores/cauth -->
<g id="edge5" class="edge">
<title>src/components/SignInModal.vue&#45;&gt;src/stores/cauth</title>
<path fill="none" stroke="#000000" stroke-width="2" stroke-opacity="0.200000" d="M384.69,-404.89C389.98,-402.36 394.97,-399.12 399,-395 406.86,-386.96 398.78,-378.67 407,-371 412.07,-366.27 418.62,-363.21 425.32,-361.24"/>
<polygon fill="#000000" fill-opacity="0.200000" stroke="#000000" stroke-width="2" stroke-opacity="0.200000" points="426.15,-363.2 431.47,-359.72 425.14,-359.12 426.15,-363.2"/>
</g>
<!-- src/components/SignInStatus.vue -->
<g id="node16" class="node">
<title>src/components/SignInStatus.vue</title>
<g id="a_node16"><a xlink:href="src/components/SignInStatus.vue" xlink:title="SignInStatus.vue">
<path fill="#41f083" stroke="black" d="M256,-334C256,-334 173,-334 173,-334 170,-334 167,-331 167,-328 167,-328 167,-322 167,-322 167,-319 170,-316 173,-316 173,-316 256,-316 256,-316 259,-316 262,-319 262,-322 262,-322 262,-328 262,-328 262,-331 259,-334 256,-334"/>
<text text-anchor="start" x="175" y="-322.8" font-family="Helvetica,sans-Serif" font-size="9.00">SignInStatus.vue</text>
</a>
</g>
</g>
<!-- src/components/SignInStatus.vue&#45;&gt;src/stores/cauth -->
<g id="edge6" class="edge">
<title>src/components/SignInStatus.vue&#45;&gt;src/stores/cauth</title>
<path fill="none" stroke="#000000" stroke-width="2" stroke-opacity="0.200000" d="M262.16,-331.36C309.97,-337.88 383.08,-347.85 424.97,-353.56"/>
<polygon fill="#000000" fill-opacity="0.200000" stroke="#000000" stroke-width="2" stroke-opacity="0.200000" points="424.94,-355.68 431.17,-354.41 425.51,-351.52 424.94,-355.68"/>
</g>
<!-- src/components/WalletConnectionStatus.vue -->
<g id="node17" class="node">
<title>src/components/WalletConnectionStatus.vue</title>
<g id="a_node17"><a xlink:href="src/components/WalletConnectionStatus.vue" xlink:title="WalletConnectionStatus.vue">
<path fill="#41f083" stroke="black" d="M280,-364C280,-364 149,-364 149,-364 146,-364 143,-361 143,-358 143,-358 143,-352 143,-352 143,-349 146,-346 149,-346 149,-346 280,-346 280,-346 283,-346 286,-349 286,-352 286,-352 286,-358 286,-358 286,-361 283,-364 280,-364"/>
<text text-anchor="start" x="151" y="-352.8" font-family="Helvetica,sans-Serif" font-size="9.00">WalletConnectionStatus.vue</text>
</a>
</g>
</g>
<!-- src/components/WalletConnectionStatus.vue&#45;&gt;src/stores/cauth -->
<g id="edge7" class="edge">
<title>src/components/WalletConnectionStatus.vue&#45;&gt;src/stores/cauth</title>
<path fill="none" stroke="#000000" stroke-width="2" stroke-opacity="0.200000" d="M286.15,-355.88C331.98,-356.44 389.55,-357.16 424.92,-357.6"/>
<polygon fill="#000000" fill-opacity="0.200000" stroke="#000000" stroke-width="2" stroke-opacity="0.200000" points="425.24,-359.7 431.26,-357.67 425.29,-355.5 425.24,-359.7"/>
</g>
<!-- src/env.d.ts -->
<g id="node18" class="node">
<title>src/env.d.ts</title>
<g id="a_node18"><a xlink:href="src/env.d.ts" xlink:title="env.d.ts">
<path fill="#ccffcc" stroke="black" d="M92.5,-94C92.5,-94 50.5,-94 50.5,-94 47.5,-94 44.5,-91 44.5,-88 44.5,-88 44.5,-82 44.5,-82 44.5,-79 47.5,-76 50.5,-76 50.5,-76 92.5,-76 92.5,-76 95.5,-76 98.5,-79 98.5,-82 98.5,-82 98.5,-88 98.5,-88 98.5,-91 95.5,-94 92.5,-94"/>
<text text-anchor="start" x="53" y="-82.8" font-family="Helvetica,sans-Serif" font-size="9.00">env.d.ts</text>
</a>
</g>
</g>
<!-- src/layouts/._MainLayout.vue -->
<g id="node19" class="node">
<title>src/layouts/._MainLayout.vue</title>
<g id="a_node19"><a xlink:href="src/layouts/._MainLayout.vue" xlink:title="._MainLayout.vue">
<path fill="#ccffcc" stroke="black" d="M113,-488C113,-488 30,-488 30,-488 27,-488 24,-485 24,-482 24,-482 24,-476 24,-476 24,-473 27,-470 30,-470 30,-470 113,-470 113,-470 116,-470 119,-473 119,-476 119,-476 119,-482 119,-482 119,-485 116,-488 113,-488"/>
<text text-anchor="start" x="32" y="-476.8" font-family="Helvetica,sans-Serif" font-size="9.00">._MainLayout.vue</text>
</a>
</g>
</g>
<!-- src/layouts/MainLayout.vue -->
<g id="node20" class="node">
<title>src/layouts/MainLayout.vue</title>
<g id="a_node20"><a xlink:href="src/layouts/MainLayout.vue" xlink:title="MainLayout.vue">
<path fill="#ccffcc" stroke="black" d="M109.5,-458C109.5,-458 33.5,-458 33.5,-458 30.5,-458 27.5,-455 27.5,-452 27.5,-452 27.5,-446 27.5,-446 27.5,-443 30.5,-440 33.5,-440 33.5,-440 109.5,-440 109.5,-440 112.5,-440 115.5,-443 115.5,-446 115.5,-446 115.5,-452 115.5,-452 115.5,-455 112.5,-458 109.5,-458"/>
<text text-anchor="start" x="35.5" y="-446.8" font-family="Helvetica,sans-Serif" font-size="9.00">MainLayout.vue</text>
</a>
</g>
</g>
<!-- src/pages/._ErrorPage.vue -->
<g id="node21" class="node">
<title>src/pages/._ErrorPage.vue</title>
<g id="a_node21"><a xlink:href="src/pages/._ErrorPage.vue" xlink:title="._ErrorPage.vue">
<path fill="#ccffcc" stroke="black" d="M109.5,-398C109.5,-398 33.5,-398 33.5,-398 30.5,-398 27.5,-395 27.5,-392 27.5,-392 27.5,-386 27.5,-386 27.5,-383 30.5,-380 33.5,-380 33.5,-380 109.5,-380 109.5,-380 112.5,-380 115.5,-383 115.5,-386 115.5,-386 115.5,-392 115.5,-392 115.5,-395 112.5,-398 109.5,-398"/>
<text text-anchor="start" x="35.5" y="-386.8" font-family="Helvetica,sans-Serif" font-size="9.00">._ErrorPage.vue</text>
</a>
</g>
</g>
<!-- src/pages/._IndexPage.vue -->
<g id="node22" class="node">
<title>src/pages/._IndexPage.vue</title>
<g id="a_node22"><a xlink:href="src/pages/._IndexPage.vue" xlink:title="._IndexPage.vue">
<path fill="#ccffcc" stroke="black" d="M111,-368C111,-368 32,-368 32,-368 29,-368 26,-365 26,-362 26,-362 26,-356 26,-356 26,-353 29,-350 32,-350 32,-350 111,-350 111,-350 114,-350 117,-353 117,-356 117,-356 117,-362 117,-362 117,-365 114,-368 111,-368"/>
<text text-anchor="start" x="34" y="-356.8" font-family="Helvetica,sans-Serif" font-size="9.00">._IndexPage.vue</text>
</a>
</g>
</g>
<!-- src/pages/ErrorPage.vue -->
<g id="node23" class="node">
<title>src/pages/ErrorPage.vue</title>
<g id="a_node23"><a xlink:href="src/pages/ErrorPage.vue" xlink:title="ErrorPage.vue">
<path fill="#ccffcc" stroke="black" d="M105.5,-338C105.5,-338 37.5,-338 37.5,-338 34.5,-338 31.5,-335 31.5,-332 31.5,-332 31.5,-326 31.5,-326 31.5,-323 34.5,-320 37.5,-320 37.5,-320 105.5,-320 105.5,-320 108.5,-320 111.5,-323 111.5,-326 111.5,-326 111.5,-332 111.5,-332 111.5,-335 108.5,-338 105.5,-338"/>
<text text-anchor="start" x="39.5" y="-326.8" font-family="Helvetica,sans-Serif" font-size="9.00">ErrorPage.vue</text>
</a>
</g>
</g>
<!-- src/pages/IndexPage.vue -->
<g id="node24" class="node">
<title>src/pages/IndexPage.vue</title>
<g id="a_node24"><a xlink:href="src/pages/IndexPage.vue" xlink:title="IndexPage.vue">
<path fill="#41f083" stroke="black" d="M107,-308C107,-308 36,-308 36,-308 33,-308 30,-305 30,-302 30,-302 30,-296 30,-296 30,-293 33,-290 36,-290 36,-290 107,-290 107,-290 110,-290 113,-293 113,-296 113,-296 113,-302 113,-302 113,-305 110,-308 107,-308"/>
<text text-anchor="start" x="38" y="-296.8" font-family="Helvetica,sans-Serif" font-size="9.00">IndexPage.vue</text>
</a>
</g>
</g>
<!-- src/pages/IndexPage.vue&#45;&gt;src/boot/axios.ts -->
<g id="edge8" class="edge">
<title>src/pages/IndexPage.vue&#45;&gt;src/boot/axios.ts</title>
<path fill="none" stroke="#000000" stroke-width="2" stroke-opacity="0.200000" d="M113.21,-294.97C118.39,-292.93 123.2,-290.04 127,-286 141.21,-270.88 120.45,-254.79 135,-240 146.85,-227.95 165.2,-223.97 181.18,-223.11"/>
<polygon fill="#000000" fill-opacity="0.200000" stroke="#000000" stroke-width="2" stroke-opacity="0.200000" points="181.46,-225.2 187.4,-222.92 181.34,-221.01 181.46,-225.2"/>
</g>
<!-- src/pages/IndexPage.vue&#45;&gt;src/stores/cauth -->
<g id="edge10" class="edge">
<title>src/pages/IndexPage.vue&#45;&gt;src/stores/cauth</title>
<path fill="none" stroke="#000000" stroke-width="2" stroke-opacity="0.200000" d="M113.2,-298.41C198.31,-297.36 388.17,-296.05 399,-305 412.3,-316 395.3,-330.31 407,-343 411.89,-348.31 418.57,-351.77 425.46,-354.01"/>
<polygon fill="#000000" fill-opacity="0.200000" stroke="#000000" stroke-width="2" stroke-opacity="0.200000" points="424.92,-356.04 431.27,-355.63 426.05,-352 424.92,-356.04"/>
</g>
<!-- src/pages/IndexPage.vue&#45;&gt;src/components/SignInButton.vue -->
<g id="edge9" class="edge">
<title>src/pages/IndexPage.vue&#45;&gt;src/components/SignInButton.vue</title>
<path fill="none" stroke="#000000" stroke-width="2" stroke-opacity="0.200000" d="M113.04,-304.09C118.38,-306.37 123.28,-309.56 127,-314 139.33,-328.71 122.1,-385.79 135,-400 141.64,-407.31 150.67,-411.72 160.23,-414.27"/>
<polygon fill="#000000" fill-opacity="0.200000" stroke="#000000" stroke-width="2" stroke-opacity="0.200000" points="159.92,-416.35 166.24,-415.63 160.85,-412.26 159.92,-416.35"/>
</g>
<!-- src/quasar.d.ts -->
<g id="node25" class="node">
<title>src/quasar.d.ts</title>
<g id="a_node25"><a xlink:href="src/quasar.d.ts" xlink:title="quasar.d.ts">
<path fill="#ccffcc" stroke="black" d="M99,-64C99,-64 44,-64 44,-64 41,-64 38,-61 38,-58 38,-58 38,-52 38,-52 38,-49 41,-46 44,-46 44,-46 99,-46 99,-46 102,-46 105,-49 105,-52 105,-52 105,-58 105,-58 105,-61 102,-64 99,-64"/>
<text text-anchor="start" x="46" y="-52.8" font-family="Helvetica,sans-Serif" font-size="9.00">quasar.d.ts</text>
</a>
</g>
</g>
<!-- src/router/._index.ts -->
<g id="node26" class="node">
<title>src/router/._index.ts</title>
<g id="a_node26"><a xlink:href="src/router/._index.ts" xlink:title="._index.ts">
<path fill="#ccffcc" stroke="black" d="M369,-157C369,-157 321,-157 321,-157 318,-157 315,-154 315,-151 315,-151 315,-145 315,-145 315,-142 318,-139 321,-139 321,-139 369,-139 369,-139 372,-139 375,-142 375,-145 375,-145 375,-151 375,-151 375,-154 372,-157 369,-157"/>
<text text-anchor="start" x="323" y="-145.8" font-family="Helvetica,sans-Serif" font-size="9.00">._index.ts</text>
</a>
</g>
</g>
<!-- src/router/._routes.ts -->
<g id="node27" class="node">
<title>src/router/._routes.ts</title>
<g id="a_node27"><a xlink:href="src/router/._routes.ts" xlink:title="._routes.ts">
<path fill="#ccffcc" stroke="black" d="M371,-127C371,-127 319,-127 319,-127 316,-127 313,-124 313,-121 313,-121 313,-115 313,-115 313,-112 316,-109 319,-109 319,-109 371,-109 371,-109 374,-109 377,-112 377,-115 377,-115 377,-121 377,-121 377,-124 374,-127 371,-127"/>
<text text-anchor="start" x="321" y="-115.8" font-family="Helvetica,sans-Serif" font-size="9.00">._routes.ts</text>
</a>
</g>
</g>
<!-- src/router/index.ts -->
<g id="node28" class="node">
<title>src/router/index.ts</title>
<g id="a_node28"><a xlink:href="src/router/index.ts" xlink:title="index.ts">
<path fill="#ddfeff" stroke="black" d="M366,-97C366,-97 324,-97 324,-97 321,-97 318,-94 318,-91 318,-91 318,-85 318,-85 318,-82 321,-79 324,-79 324,-79 366,-79 366,-79 369,-79 372,-82 372,-85 372,-85 372,-91 372,-91 372,-94 369,-97 366,-97"/>
<text text-anchor="start" x="326.5" y="-85.8" font-family="Helvetica,sans-Serif" font-size="9.00">index.ts</text>
</a>
</g>
</g>
<!-- src/router/index.ts&#45;&gt;src/stores/cauth -->
<g id="edge12" class="edge">
<title>src/router/index.ts&#45;&gt;src/stores/cauth</title>
<path fill="none" stroke="#000000" stroke-width="2" stroke-opacity="0.200000" d="M372,-89.04C382.01,-90.85 392.58,-94.79 399,-103 415.45,-124.01 390.69,-321.88 407,-343 411.54,-348.88 418.29,-352.54 425.38,-354.79"/>
<polygon fill="#000000" fill-opacity="0.200000" stroke="#000000" stroke-width="2" stroke-opacity="0.200000" points="425.04,-356.88 431.38,-356.38 426.11,-352.82 425.04,-356.88"/>
</g>
<!-- src/router/routes.ts -->
<g id="node29" class="node">
<title>src/router/routes.ts</title>
<g id="a_node29"><a xlink:href="src/router/routes.ts" xlink:title="routes.ts">
<path fill="#ddfeff" stroke="black" d="M480.5,-97C480.5,-97 436.5,-97 436.5,-97 433.5,-97 430.5,-94 430.5,-91 430.5,-91 430.5,-85 430.5,-85 430.5,-82 433.5,-79 436.5,-79 436.5,-79 480.5,-79 480.5,-79 483.5,-79 486.5,-82 486.5,-85 486.5,-85 486.5,-91 486.5,-91 486.5,-94 483.5,-97 480.5,-97"/>
<text text-anchor="start" x="438.5" y="-85.8" font-family="Helvetica,sans-Serif" font-size="9.00">routes.ts</text>
</a>
</g>
</g>
<!-- src/router/index.ts&#45;&gt;src/router/routes.ts -->
<g id="edge11" class="edge">
<title>src/router/index.ts&#45;&gt;src/router/routes.ts</title>
<path fill="none" stroke="#000000" stroke-width="2" stroke-opacity="0.200000" d="M372.14,-88C387.6,-88 407.33,-88 423.93,-88"/>
<polygon fill="#000000" fill-opacity="0.200000" stroke="#000000" stroke-width="2" stroke-opacity="0.200000" points="424.36,-90.1 430.36,-88 424.36,-85.9 424.36,-90.1"/>
</g>
<!-- src/shims&#45;vue.d.ts -->
<g id="node30" class="node">
<title>src/shims&#45;vue.d.ts</title>
<g id="a_node30"><a xlink:href="src/shims-vue.d.ts" xlink:title="shims&#45;vue.d.ts">
<path fill="#ccffcc" stroke="black" d="M107,-34C107,-34 36,-34 36,-34 33,-34 30,-31 30,-28 30,-28 30,-22 30,-22 30,-19 33,-16 36,-16 36,-16 107,-16 107,-16 110,-16 113,-19 113,-22 113,-22 113,-28 113,-28 113,-31 110,-34 107,-34"/>
<text text-anchor="start" x="38" y="-22.8" font-family="Helvetica,sans-Serif" font-size="9.00">shims&#45;vue.d.ts</text>
</a>
</g>
</g>
<!-- src/stores/._index.ts -->
<g id="node31" class="node">
<title>src/stores/._index.ts</title>
<g id="a_node31"><a xlink:href="src/stores/._index.ts" xlink:title="._index.ts">
<path fill="#ccffcc" stroke="black" d="M482.5,-337C482.5,-337 434.5,-337 434.5,-337 431.5,-337 428.5,-334 428.5,-331 428.5,-331 428.5,-325 428.5,-325 428.5,-322 431.5,-319 434.5,-319 434.5,-319 482.5,-319 482.5,-319 485.5,-319 488.5,-322 488.5,-325 488.5,-325 488.5,-331 488.5,-331 488.5,-334 485.5,-337 482.5,-337"/>
<text text-anchor="start" x="436.5" y="-325.8" font-family="Helvetica,sans-Serif" font-size="9.00">._index.ts</text>
</a>
</g>
</g>
<!-- src/stores/._store&#45;flag.d.ts -->
<g id="node32" class="node">
<title>src/stores/._store&#45;flag.d.ts</title>
<g id="a_node32"><a xlink:href="src/stores/._store-flag.d.ts" xlink:title="._store&#45;flag.d.ts">
<path fill="#ccffcc" stroke="black" d="M496,-307C496,-307 421,-307 421,-307 418,-307 415,-304 415,-301 415,-301 415,-295 415,-295 415,-292 418,-289 421,-289 421,-289 496,-289 496,-289 499,-289 502,-292 502,-295 502,-295 502,-301 502,-301 502,-304 499,-307 496,-307"/>
<text text-anchor="start" x="423" y="-295.8" font-family="Helvetica,sans-Serif" font-size="9.00">._store&#45;flag.d.ts</text>
</a>
</g>
</g>
<!-- src/stores/cauth.ts -->
<g id="node33" class="node">
<title>src/stores/cauth.ts</title>
<g id="a_node33"><a xlink:href="src/stores/cauth.ts" xlink:title="cauth.ts">
<path fill="#ddfeff" stroke="black" d="M479.5,-277C479.5,-277 437.5,-277 437.5,-277 434.5,-277 431.5,-274 431.5,-271 431.5,-271 431.5,-265 431.5,-265 431.5,-262 434.5,-259 437.5,-259 437.5,-259 479.5,-259 479.5,-259 482.5,-259 485.5,-262 485.5,-265 485.5,-265 485.5,-271 485.5,-271 485.5,-274 482.5,-277 479.5,-277"/>
<text text-anchor="start" x="439.5" y="-265.8" font-family="Helvetica,sans-Serif" font-size="9.00">cauth.ts</text>
</a>
</g>
</g>
<!-- src/stores/cauth.ts&#45;&gt;src/CAuthMode -->
<g id="edge13" class="edge">
<title>src/stores/cauth.ts&#45;&gt;src/CAuthMode</title>
<path fill="none" stroke="#000000" stroke-width="2" stroke-opacity="0.200000" d="M485.97,-268C493.95,-268 502.89,-268 511.53,-268"/>
<polygon fill="#000000" fill-opacity="0.200000" stroke="#000000" stroke-width="2" stroke-opacity="0.200000" points="511.75,-270.1 517.75,-268 511.75,-265.9 511.75,-270.1"/>
</g>
<!-- src/stores/index.ts -->
<g id="node34" class="node">
<title>src/stores/index.ts</title>
<g id="a_node34"><a xlink:href="src/stores/index.ts" xlink:title="index.ts">
<path fill="#ccffcc" stroke="black" d="M479.5,-247C479.5,-247 437.5,-247 437.5,-247 434.5,-247 431.5,-244 431.5,-241 431.5,-241 431.5,-235 431.5,-235 431.5,-232 434.5,-229 437.5,-229 437.5,-229 479.5,-229 479.5,-229 482.5,-229 485.5,-232 485.5,-235 485.5,-235 485.5,-241 485.5,-241 485.5,-244 482.5,-247 479.5,-247"/>
<text text-anchor="start" x="440" y="-235.8" font-family="Helvetica,sans-Serif" font-size="9.00">index.ts</text>
</a>
</g>
</g>
<!-- src/stores/store&#45;flag.d.ts -->
<g id="node35" class="node">
<title>src/stores/store&#45;flag.d.ts</title>
<g id="a_node35"><a xlink:href="src/stores/store-flag.d.ts" xlink:title="store&#45;flag.d.ts">
<path fill="#ccffcc" stroke="black" d="M492.5,-217C492.5,-217 424.5,-217 424.5,-217 421.5,-217 418.5,-214 418.5,-211 418.5,-211 418.5,-205 418.5,-205 418.5,-202 421.5,-199 424.5,-199 424.5,-199 492.5,-199 492.5,-199 495.5,-199 498.5,-202 498.5,-205 498.5,-205 498.5,-211 498.5,-211 498.5,-214 495.5,-217 492.5,-217"/>
<text text-anchor="start" x="426.5" y="-205.8" font-family="Helvetica,sans-Serif" font-size="9.00">store&#45;flag.d.ts</text>
</a>
</g>
</g>
</g>
</svg>
