<?xml version="1.0" encoding="UTF-8" standalone="no"?>
<!DOCTYPE svg PUBLIC "-//W3C//DTD SVG 1.1//EN"
 "http://www.w3.org/Graphics/SVG/1.1/DTD/svg11.dtd">
<!-- Generated by graphviz version 2.43.0 (0)
 -->
<!-- Title: dependency&#45;cruiser output Pages: 1 -->
<svg width="438pt" height="680pt"
 viewBox="0.00 0.00 438.00 680.00" xmlns="http://www.w3.org/2000/svg" xmlns:xlink="http://www.w3.org/1999/xlink">
<g id="graph0" class="graph" transform="scale(1 1) rotate(0) translate(4 676)">
<title>dependency&#45;cruiser output</title>
<polygon fill="white" stroke="transparent" points="-4,4 -4,-676 434,-676 434,4 -4,4"/>
<g id="clust1" class="cluster">
<title>cluster_src</title>
<path fill="#ffffff" stroke="black" stroke-width="2" d="M20,-8C20,-8 410,-8 410,-8 416,-8 422,-14 422,-20 422,-20 422,-652 422,-652 422,-658 416,-664 410,-664 410,-664 20,-664 20,-664 14,-664 8,-658 8,-652 8,-652 8,-20 8,-20 8,-14 14,-8 20,-8"/>
<text text-anchor="middle" x="215" y="-652.8" font-family="Helvetica,sans-Serif" font-weight="bold" font-size="9.00">src</text>
</g>
<g id="clust2" class="cluster">
<title>cluster_src/boot</title>
<path fill="#ffffff" stroke="black" stroke-width="2" d="M28,-556C28,-556 112,-556 112,-556 118,-556 124,-562 124,-568 124,-568 124,-626 124,-626 124,-632 118,-638 112,-638 112,-638 28,-638 28,-638 22,-638 16,-632 16,-626 16,-626 16,-568 16,-568 16,-562 22,-556 28,-556"/>
<text text-anchor="middle" x="70" y="-626.8" font-family="Helvetica,sans-Serif" font-weight="bold" font-size="9.00">boot</text>
</g>
<g id="clust3" class="cluster">
<title>cluster_src/components</title>
<path fill="#ffffff" stroke="black" stroke-width="2" d="M147,-372C147,-372 240,-372 240,-372 246,-372 252,-378 252,-384 252,-384 252,-442 252,-442 252,-448 246,-454 240,-454 240,-454 147,-454 147,-454 141,-454 135,-448 135,-442 135,-442 135,-384 135,-384 135,-378 141,-372 147,-372"/>
<text text-anchor="middle" x="193.5" y="-442.8" font-family="Helvetica,sans-Serif" font-weight="bold" font-size="9.00">components</text>
</g>
<g id="clust4" class="cluster">
<title>cluster_src/i18n</title>
<path fill="#ffffff" stroke="black" stroke-width="2" d="M47,-462C47,-462 224.5,-462 224.5,-462 230.5,-462 236.5,-468 236.5,-474 236.5,-474 236.5,-536 236.5,-536 236.5,-542 230.5,-548 224.5,-548 224.5,-548 47,-548 47,-548 41,-548 35,-542 35,-536 35,-536 35,-474 35,-474 35,-468 41,-462 47,-462"/>
<text text-anchor="start" x="124.75" y="-536.8" font-family="Helvetica,sans-Serif" font-weight="bold" font-size="9.00">i18n</text>
</g>
<g id="clust5" class="cluster">
<title>cluster_src/i18n/en&#45;US</title>
<path fill="#ffffff" stroke="black" stroke-width="2" d="M170.5,-470C170.5,-470 216.5,-470 216.5,-470 222.5,-470 228.5,-476 228.5,-482 228.5,-482 228.5,-510 228.5,-510 228.5,-516 222.5,-522 216.5,-522 216.5,-522 170.5,-522 170.5,-522 164.5,-522 158.5,-516 158.5,-510 158.5,-510 158.5,-482 158.5,-482 158.5,-476 164.5,-470 170.5,-470"/>
<text text-anchor="middle" x="193.5" y="-510.8" font-family="Helvetica,sans-Serif" font-weight="bold" font-size="9.00">en&#45;US</text>
</g>
<g id="clust6" class="cluster">
<title>cluster_src/layouts</title>
<path fill="#ffffff" stroke="black" stroke-width="2" d="M30,-402C30,-402 110,-402 110,-402 116,-402 122,-408 122,-414 122,-414 122,-442 122,-442 122,-448 116,-454 110,-454 110,-454 30,-454 30,-454 24,-454 18,-448 18,-442 18,-442 18,-414 18,-414 18,-408 24,-402 30,-402"/>
<text text-anchor="middle" x="70" y="-442.8" font-family="Helvetica,sans-Serif" font-weight="bold" font-size="9.00">layouts</text>
</g>
<g id="clust7" class="cluster">
<title>cluster_src/pages</title>
<path fill="#ffffff" stroke="black" stroke-width="2" d="M275,-132C275,-132 402,-132 402,-132 408,-132 414,-138 414,-144 414,-144 414,-262 414,-262 414,-268 408,-274 402,-274 402,-274 275,-274 275,-274 269,-274 263,-268 263,-262 263,-262 263,-144 263,-144 263,-138 269,-132 275,-132"/>
<text text-anchor="middle" x="338.5" y="-262.8" font-family="Helvetica,sans-Serif" font-weight="bold" font-size="9.00">pages</text>
</g>
<g id="clust8" class="cluster">
<title>cluster_src/router</title>
<path fill="#ffffff" stroke="black" stroke-width="2" d="M47,-132C47,-132 217.5,-132 217.5,-132 223.5,-132 229.5,-138 229.5,-144 229.5,-144 229.5,-172 229.5,-172 229.5,-178 223.5,-184 217.5,-184 217.5,-184 47,-184 47,-184 41,-184 35,-178 35,-172 35,-172 35,-144 35,-144 35,-138 41,-132 47,-132"/>
<text text-anchor="middle" x="132.25" y="-172.8" font-family="Helvetica,sans-Serif" font-weight="bold" font-size="9.00">router</text>
</g>
<g id="clust9" class="cluster">
<title>cluster_src/stores</title>
<path fill="#ffffff" stroke="black" stroke-width="2" d="M144,-192C144,-192 243,-192 243,-192 249,-192 255,-198 255,-204 255,-204 255,-352 255,-352 255,-358 249,-364 243,-364 243,-364 144,-364 144,-364 138,-364 132,-358 132,-352 132,-352 132,-204 132,-204 132,-198 138,-192 144,-192"/>
<text text-anchor="middle" x="193.5" y="-352.8" font-family="Helvetica,sans-Serif" font-weight="bold" font-size="9.00">stores</text>
</g>
<!-- src/App.vue -->
<g id="node1" class="node">
<title>src/App.vue</title>
<g id="a_node1"><a xlink:href="src/App.vue" xlink:title="App.vue">
<path fill="#ccffcc" stroke="black" d="M91,-124C91,-124 49,-124 49,-124 46,-124 43,-121 43,-118 43,-118 43,-112 43,-112 43,-109 46,-106 49,-106 49,-106 91,-106 91,-106 94,-106 97,-109 97,-112 97,-112 97,-118 97,-118 97,-121 94,-124 91,-124"/>
<text text-anchor="start" x="51" y="-112.8" font-family="Helvetica,sans-Serif" font-size="9.00">App.vue</text>
</a>
</g>
</g>
<!-- src/boot/i18n.ts -->
<g id="node2" class="node">
<title>src/boot/i18n.ts</title>
<g id="a_node2"><a xlink:href="src/boot/i18n.ts" xlink:title="i18n.ts">
<path fill="#ddfeff" stroke="black" d="M91,-612C91,-612 49,-612 49,-612 46,-612 43,-609 43,-606 43,-606 43,-600 43,-600 43,-597 46,-594 49,-594 49,-594 91,-594 91,-594 94,-594 97,-597 97,-600 97,-600 97,-606 97,-606 97,-609 94,-612 91,-612"/>
<text text-anchor="start" x="54" y="-600.8" font-family="Helvetica,sans-Serif" font-size="9.00">i18n.ts</text>
</a>
</g>
</g>
<!-- src/i18n -->
<g id="node3" class="node">
<title>src/i18n</title>
<g id="a_node3"><a xlink:title="i18n">
<path fill="#ffffcc" stroke="black" d="M214.5,-612C214.5,-612 172.5,-612 172.5,-612 169.5,-612 166.5,-609 166.5,-606 166.5,-606 166.5,-600 166.5,-600 166.5,-597 169.5,-594 172.5,-594 172.5,-594 214.5,-594 214.5,-594 217.5,-594 220.5,-597 220.5,-600 220.5,-600 220.5,-606 220.5,-606 220.5,-609 217.5,-612 214.5,-612"/>
<text text-anchor="start" x="183" y="-600.8" font-family="Helvetica,sans-Serif" font-size="9.00">i18n</text>
</a>
</g>
</g>
<!-- src/boot/i18n.ts&#45;&gt;src/i18n -->
<g id="edge1" class="edge">
<title>src/boot/i18n.ts&#45;&gt;src/i18n</title>
<path fill="none" stroke="#000000" stroke-width="2" stroke-opacity="0.200000" d="M97.06,-603C115.56,-603 140.51,-603 160.26,-603"/>
<polygon fill="#000000" fill-opacity="0.200000" stroke="#000000" stroke-width="2" stroke-opacity="0.200000" points="160.48,-605.1 166.48,-603 160.48,-600.9 160.48,-605.1"/>
</g>
<!-- src/boot/notify&#45;defaults.ts -->
<g id="node4" class="node">
<title>src/boot/notify&#45;defaults.ts</title>
<g id="a_node4"><a xlink:href="src/boot/notify-defaults.ts" xlink:title="notify&#45;defaults.ts">
<path fill="#ccffcc" stroke="black" d="M110,-582C110,-582 30,-582 30,-582 27,-582 24,-579 24,-576 24,-576 24,-570 24,-570 24,-567 27,-564 30,-564 30,-564 110,-564 110,-564 113,-564 116,-567 116,-570 116,-570 116,-576 116,-576 116,-579 113,-582 110,-582"/>
<text text-anchor="start" x="32" y="-570.8" font-family="Helvetica,sans-Serif" font-size="9.00">notify&#45;defaults.ts</text>
</a>
</g>
</g>
<!-- src/components/ConnectWallet.vue -->
<g id="node5" class="node">
<title>src/components/ConnectWallet.vue</title>
<g id="a_node5"><a xlink:href="src/components/ConnectWallet.vue" xlink:title="ConnectWallet.vue">
<path fill="#41f083" stroke="black" d="M238,-428C238,-428 149,-428 149,-428 146,-428 143,-425 143,-422 143,-422 143,-416 143,-416 143,-413 146,-410 149,-410 149,-410 238,-410 238,-410 241,-410 244,-413 244,-416 244,-416 244,-422 244,-422 244,-425 241,-428 238,-428"/>
<text text-anchor="start" x="151" y="-416.8" font-family="Helvetica,sans-Serif" font-size="9.00">ConnectWallet.vue</text>
</a>
</g>
</g>
<!-- src/components/models.ts -->
<g id="node6" class="node">
<title>src/components/models.ts</title>
<g id="a_node6"><a xlink:href="src/components/models.ts" xlink:title="models.ts">
<path fill="#ccffcc" stroke="black" d="M217.5,-398C217.5,-398 169.5,-398 169.5,-398 166.5,-398 163.5,-395 163.5,-392 163.5,-392 163.5,-386 163.5,-386 163.5,-383 166.5,-380 169.5,-380 169.5,-380 217.5,-380 217.5,-380 220.5,-380 223.5,-383 223.5,-386 223.5,-386 223.5,-392 223.5,-392 223.5,-395 220.5,-398 217.5,-398"/>
<text text-anchor="start" x="171.5" y="-386.8" font-family="Helvetica,sans-Serif" font-size="9.00">models.ts</text>
</a>
</g>
</g>
<!-- src/env.d.ts -->
<g id="node7" class="node">
<title>src/env.d.ts</title>
<g id="a_node7"><a xlink:href="src/env.d.ts" xlink:title="env.d.ts">
<path fill="#ccffcc" stroke="black" d="M91,-94C91,-94 49,-94 49,-94 46,-94 43,-91 43,-88 43,-88 43,-82 43,-82 43,-79 46,-76 49,-76 49,-76 91,-76 91,-76 94,-76 97,-79 97,-82 97,-82 97,-88 97,-88 97,-91 94,-94 91,-94"/>
<text text-anchor="start" x="51.5" y="-82.8" font-family="Helvetica,sans-Serif" font-size="9.00">env.d.ts</text>
</a>
</g>
</g>
<!-- src/i18n/en&#45;US/index.ts -->
<g id="node8" class="node">
<title>src/i18n/en&#45;US/index.ts</title>
<g id="a_node8"><a xlink:href="src/i18n/en-US/index.ts" xlink:title="index.ts">
<path fill="#ddfeff" stroke="black" d="M214.5,-496C214.5,-496 172.5,-496 172.5,-496 169.5,-496 166.5,-493 166.5,-490 166.5,-490 166.5,-484 166.5,-484 166.5,-481 169.5,-478 172.5,-478 172.5,-478 214.5,-478 214.5,-478 217.5,-478 220.5,-481 220.5,-484 220.5,-484 220.5,-490 220.5,-490 220.5,-493 217.5,-496 214.5,-496"/>
<text text-anchor="start" x="175" y="-484.8" font-family="Helvetica,sans-Serif" font-size="9.00">index.ts</text>
</a>
</g>
</g>
<!-- src/i18n/index.ts -->
<g id="node9" class="node">
<title>src/i18n/index.ts</title>
<g id="a_node9"><a xlink:href="src/i18n/index.ts" xlink:title="index.ts">
<path fill="#ddfeff" stroke="black" d="M91,-496C91,-496 49,-496 49,-496 46,-496 43,-493 43,-490 43,-490 43,-484 43,-484 43,-481 46,-478 49,-478 49,-478 91,-478 91,-478 94,-478 97,-481 97,-484 97,-484 97,-490 97,-490 97,-493 94,-496 91,-496"/>
<text text-anchor="start" x="51.5" y="-484.8" font-family="Helvetica,sans-Serif" font-size="9.00">index.ts</text>
</a>
</g>
</g>
<!-- src/i18n/index.ts&#45;&gt;src/i18n/en&#45;US/index.ts -->
<g id="edge2" class="edge">
<title>src/i18n/index.ts&#45;&gt;src/i18n/en&#45;US/index.ts</title>
<path fill="none" stroke="#000000" stroke-width="2" stroke-opacity="0.200000" d="M97.06,-487C115.56,-487 140.51,-487 160.26,-487"/>
<polygon fill="#000000" fill-opacity="0.200000" stroke="#000000" stroke-width="2" stroke-opacity="0.200000" points="160.48,-489.1 166.48,-487 160.48,-484.9 160.48,-489.1"/>
</g>
<!-- src/layouts/MainLayout.vue -->
<g id="node10" class="node">
<title>src/layouts/MainLayout.vue</title>
<g id="a_node10"><a xlink:href="src/layouts/MainLayout.vue" xlink:title="MainLayout.vue">
<path fill="#41f083" stroke="black" d="M108,-428C108,-428 32,-428 32,-428 29,-428 26,-425 26,-422 26,-422 26,-416 26,-416 26,-413 29,-410 32,-410 32,-410 108,-410 108,-410 111,-410 114,-413 114,-416 114,-416 114,-422 114,-422 114,-425 111,-428 108,-428"/>
<text text-anchor="start" x="34" y="-416.8" font-family="Helvetica,sans-Serif" font-size="9.00">MainLayout.vue</text>
</a>
</g>
</g>
<!-- src/layouts/MainLayout.vue&#45;&gt;src/components/ConnectWallet.vue -->
<g id="edge3" class="edge">
<title>src/layouts/MainLayout.vue&#45;&gt;src/components/ConnectWallet.vue</title>
<path fill="none" stroke="#000000" stroke-width="2" stroke-opacity="0.200000" d="M114.18,-419C121.43,-419 129.04,-419 136.55,-419"/>
<polygon fill="#000000" fill-opacity="0.200000" stroke="#000000" stroke-width="2" stroke-opacity="0.200000" points="136.83,-421.1 142.83,-419 136.83,-416.9 136.83,-421.1"/>
</g>
<!-- src/pages/ErrorNotFound.vue -->
<g id="node11" class="node">
<title>src/pages/ErrorNotFound.vue</title>
<g id="a_node11"><a xlink:href="src/pages/ErrorNotFound.vue" xlink:title="ErrorNotFound.vue">
<path fill="#ccffcc" stroke="black" d="M383.5,-248C383.5,-248 293.5,-248 293.5,-248 290.5,-248 287.5,-245 287.5,-242 287.5,-242 287.5,-236 287.5,-236 287.5,-233 290.5,-230 293.5,-230 293.5,-230 383.5,-230 383.5,-230 386.5,-230 389.5,-233 389.5,-236 389.5,-236 389.5,-242 389.5,-242 389.5,-245 386.5,-248 383.5,-248"/>
<text text-anchor="start" x="295.5" y="-236.8" font-family="Helvetica,sans-Serif" font-size="9.00">ErrorNotFound.vue</text>
</a>
</g>
</g>
<!-- src/pages/IndexPage.vue -->
<g id="node12" class="node">
<title>src/pages/IndexPage.vue</title>
<g id="a_node12"><a xlink:href="src/pages/IndexPage.vue" xlink:title="IndexPage.vue">
<path fill="#ccffcc" stroke="black" d="M374,-218C374,-218 303,-218 303,-218 300,-218 297,-215 297,-212 297,-212 297,-206 297,-206 297,-203 300,-200 303,-200 303,-200 374,-200 374,-200 377,-200 380,-203 380,-206 380,-206 380,-212 380,-212 380,-215 377,-218 374,-218"/>
<text text-anchor="start" x="305" y="-206.8" font-family="Helvetica,sans-Serif" font-size="9.00">IndexPage.vue</text>
</a>
</g>
</g>
<!-- src/pages/PersonalLoginCreation.vue -->
<g id="node13" class="node">
<title>src/pages/PersonalLoginCreation.vue</title>
<g id="a_node13"><a xlink:href="src/pages/PersonalLoginCreation.vue" xlink:title="PersonalLoginCreation.vue">
<path fill="#ccffcc" stroke="black" d="M400,-188C400,-188 277,-188 277,-188 274,-188 271,-185 271,-182 271,-182 271,-176 271,-176 271,-173 274,-170 277,-170 277,-170 400,-170 400,-170 403,-170 406,-173 406,-176 406,-176 406,-182 406,-182 406,-185 403,-188 400,-188"/>
<text text-anchor="start" x="279" y="-176.8" font-family="Helvetica,sans-Serif" font-size="9.00">PersonalLoginCreation.vue</text>
</a>
</g>
</g>
<!-- src/pages/SiteLoginCreation.vue -->
<g id="node14" class="node">
<title>src/pages/SiteLoginCreation.vue</title>
<g id="a_node14"><a xlink:href="src/pages/SiteLoginCreation.vue" xlink:title="SiteLoginCreation.vue">
<path fill="#41f083" stroke="black" d="M390,-158C390,-158 287,-158 287,-158 284,-158 281,-155 281,-152 281,-152 281,-146 281,-146 281,-143 284,-140 287,-140 287,-140 390,-140 390,-140 393,-140 396,-143 396,-146 396,-146 396,-152 396,-152 396,-155 393,-158 390,-158"/>
<text text-anchor="start" x="289" y="-146.8" font-family="Helvetica,sans-Serif" font-size="9.00">SiteLoginCreation.vue</text>
</a>
</g>
</g>
<!-- src/quasar.d.ts -->
<g id="node15" class="node">
<title>src/quasar.d.ts</title>
<g id="a_node15"><a xlink:href="src/quasar.d.ts" xlink:title="quasar.d.ts">
<path fill="#ccffcc" stroke="black" d="M97.5,-64C97.5,-64 42.5,-64 42.5,-64 39.5,-64 36.5,-61 36.5,-58 36.5,-58 36.5,-52 36.5,-52 36.5,-49 39.5,-46 42.5,-46 42.5,-46 97.5,-46 97.5,-46 100.5,-46 103.5,-49 103.5,-52 103.5,-52 103.5,-58 103.5,-58 103.5,-61 100.5,-64 97.5,-64"/>
<text text-anchor="start" x="44.5" y="-52.8" font-family="Helvetica,sans-Serif" font-size="9.00">quasar.d.ts</text>
</a>
</g>
</g>
<!-- src/router/index.ts -->
<g id="node16" class="node">
<title>src/router/index.ts</title>
<g id="a_node16"><a xlink:href="src/router/index.ts" xlink:title="index.ts">
<path fill="#ddfeff" stroke="black" d="M91,-158C91,-158 49,-158 49,-158 46,-158 43,-155 43,-152 43,-152 43,-146 43,-146 43,-143 46,-140 49,-140 49,-140 91,-140 91,-140 94,-140 97,-143 97,-146 97,-146 97,-152 97,-152 97,-155 94,-158 91,-158"/>
<text text-anchor="start" x="51.5" y="-146.8" font-family="Helvetica,sans-Serif" font-size="9.00">index.ts</text>
</a>
</g>
</g>
<!-- src/router/routes.ts -->
<g id="node17" class="node">
<title>src/router/routes.ts</title>
<g id="a_node17"><a xlink:href="src/router/routes.ts" xlink:title="routes.ts">
<path fill="#ddfeff" stroke="black" d="M215.5,-158C215.5,-158 171.5,-158 171.5,-158 168.5,-158 165.5,-155 165.5,-152 165.5,-152 165.5,-146 165.5,-146 165.5,-143 168.5,-140 171.5,-140 171.5,-140 215.5,-140 215.5,-140 218.5,-140 221.5,-143 221.5,-146 221.5,-146 221.5,-152 221.5,-152 221.5,-155 218.5,-158 215.5,-158"/>
<text text-anchor="start" x="173.5" y="-146.8" font-family="Helvetica,sans-Serif" font-size="9.00">routes.ts</text>
</a>
</g>
</g>
<!-- src/router/index.ts&#45;&gt;src/router/routes.ts -->
<g id="edge4" class="edge">
<title>src/router/index.ts&#45;&gt;src/router/routes.ts</title>
<path fill="none" stroke="#000000" stroke-width="2" stroke-opacity="0.200000" d="M97.06,-149C115.19,-149 139.5,-149 159.05,-149"/>
<polygon fill="#000000" fill-opacity="0.200000" stroke="#000000" stroke-width="2" stroke-opacity="0.200000" points="159.21,-151.1 165.21,-149 159.21,-146.9 159.21,-151.1"/>
</g>
<!-- src/stores/wallet&#45;store -->
<g id="node18" class="node">
<title>src/stores/wallet&#45;store</title>
<g id="a_node18"><a xlink:title="wallet&#45;store">
<path fill="#ffffcc" stroke="black" d="M221.5,-338C221.5,-338 165.5,-338 165.5,-338 162.5,-338 159.5,-335 159.5,-332 159.5,-332 159.5,-326 159.5,-326 159.5,-323 162.5,-320 165.5,-320 165.5,-320 221.5,-320 221.5,-320 224.5,-320 227.5,-323 227.5,-326 227.5,-326 227.5,-332 227.5,-332 227.5,-335 224.5,-338 221.5,-338"/>
<text text-anchor="start" x="167.5" y="-326.8" font-family="Helvetica,sans-Serif" font-size="9.00">wallet&#45;store</text>
</a>
</g>
</g>
<!-- src/router/index.ts&#45;&gt;src/stores/wallet&#45;store -->
<g id="edge5" class="edge">
<title>src/router/index.ts&#45;&gt;src/stores/wallet&#45;store</title>
<path fill="none" stroke="#000000" stroke-width="2" stroke-opacity="0.200000" d="M71.51,-158.12C73.58,-186 83.75,-270.83 132,-314 137.98,-319.35 145.56,-322.86 153.33,-325.14"/>
<polygon fill="#000000" fill-opacity="0.200000" stroke="#000000" stroke-width="2" stroke-opacity="0.200000" points="152.94,-327.21 159.27,-326.66 153.98,-323.14 152.94,-327.21"/>
</g>
<!-- src/router/routes.ts&#45;&gt;src/pages/SiteLoginCreation.vue -->
<g id="edge6" class="edge">
<title>src/router/routes.ts&#45;&gt;src/pages/SiteLoginCreation.vue</title>
<path fill="none" stroke="#000000" stroke-width="2" stroke-dasharray="5,2" stroke-opacity="0.200000" d="M221.73,-149C236.73,-149 256.01,-149 274.52,-149"/>
<polygon fill="#000000" fill-opacity="0.200000" stroke="#000000" stroke-width="2" stroke-opacity="0.200000" points="274.76,-151.1 280.76,-149 274.76,-146.9 274.76,-151.1"/>
</g>
<!-- src/shims&#45;vue.d.ts -->
<g id="node19" class="node">
<title>src/shims&#45;vue.d.ts</title>
<g id="a_node19"><a xlink:href="src/shims-vue.d.ts" xlink:title="shims&#45;vue.d.ts">
<path fill="#ccffcc" stroke="black" d="M105.5,-34C105.5,-34 34.5,-34 34.5,-34 31.5,-34 28.5,-31 28.5,-28 28.5,-28 28.5,-22 28.5,-22 28.5,-19 31.5,-16 34.5,-16 34.5,-16 105.5,-16 105.5,-16 108.5,-16 111.5,-19 111.5,-22 111.5,-22 111.5,-28 111.5,-28 111.5,-31 108.5,-34 105.5,-34"/>
<text text-anchor="start" x="36.5" y="-22.8" font-family="Helvetica,sans-Serif" font-size="9.00">shims&#45;vue.d.ts</text>
</a>
</g>
</g>
<!-- src/stores/index.ts -->
<g id="node20" class="node">
<title>src/stores/index.ts</title>
<g id="a_node20"><a xlink:href="src/stores/index.ts" xlink:title="index.ts">
<path fill="#ccffcc" stroke="black" d="M214.5,-308C214.5,-308 172.5,-308 172.5,-308 169.5,-308 166.5,-305 166.5,-302 166.5,-302 166.5,-296 166.5,-296 166.5,-293 169.5,-290 172.5,-290 172.5,-290 214.5,-290 214.5,-290 217.5,-290 220.5,-293 220.5,-296 220.5,-296 220.5,-302 220.5,-302 220.5,-305 217.5,-308 214.5,-308"/>
<text text-anchor="start" x="175" y="-296.8" font-family="Helvetica,sans-Serif" font-size="9.00">index.ts</text>
</a>
</g>
</g>
<!-- src/stores/site&#45;minting&#45;store.ts -->
<g id="node21" class="node">
<title>src/stores/site&#45;minting&#45;store.ts</title>
<g id="a_node21"><a xlink:href="src/stores/site-minting-store.ts" xlink:title="site&#45;minting&#45;store.ts">
<path fill="#ccffcc" stroke="black" d="M241,-278C241,-278 146,-278 146,-278 143,-278 140,-275 140,-272 140,-272 140,-266 140,-266 140,-263 143,-260 146,-260 146,-260 241,-260 241,-260 244,-260 247,-263 247,-266 247,-266 247,-272 247,-272 247,-275 244,-278 241,-278"/>
<text text-anchor="start" x="148" y="-266.8" font-family="Helvetica,sans-Serif" font-size="9.00">site&#45;minting&#45;store.ts</text>
</a>
</g>
</g>
<!-- src/stores/store&#45;flag.d.ts -->
<g id="node22" class="node">
<title>src/stores/store&#45;flag.d.ts</title>
<g id="a_node22"><a xlink:href="src/stores/store-flag.d.ts" xlink:title="store&#45;flag.d.ts">
<path fill="#ccffcc" stroke="black" d="M227.5,-248C227.5,-248 159.5,-248 159.5,-248 156.5,-248 153.5,-245 153.5,-242 153.5,-242 153.5,-236 153.5,-236 153.5,-233 156.5,-230 159.5,-230 159.5,-230 227.5,-230 227.5,-230 230.5,-230 233.5,-233 233.5,-236 233.5,-236 233.5,-242 233.5,-242 233.5,-245 230.5,-248 227.5,-248"/>
<text text-anchor="start" x="161.5" y="-236.8" font-family="Helvetica,sans-Serif" font-size="9.00">store&#45;flag.d.ts</text>
</a>
</g>
</g>
<!-- src/stores/wallet&#45;store.ts -->
<g id="node23" class="node">
<title>src/stores/wallet&#45;store.ts</title>
<g id="a_node23"><a xlink:href="src/stores/wallet-store.ts" xlink:title="wallet&#45;store.ts">
<path fill="#ccffcc" stroke="black" d="M227.5,-218C227.5,-218 159.5,-218 159.5,-218 156.5,-218 153.5,-215 153.5,-212 153.5,-212 153.5,-206 153.5,-206 153.5,-203 156.5,-200 159.5,-200 159.5,-200 227.5,-200 227.5,-200 230.5,-200 233.5,-203 233.5,-206 233.5,-206 233.5,-212 233.5,-212 233.5,-215 230.5,-218 227.5,-218"/>
<text text-anchor="start" x="161.5" y="-206.8" font-family="Helvetica,sans-Serif" font-size="9.00">wallet&#45;store.ts</text>
</a>
</g>
</g>
</g>
</svg>
