<?xml version="1.0" encoding="UTF-8" standalone="no"?>
<!DOCTYPE svg PUBLIC "-//W3C//DTD SVG 1.1//EN"
 "http://www.w3.org/Graphics/SVG/1.1/DTD/svg11.dtd">
<!-- Generated by graphviz version 2.43.0 (0)
 -->
<!-- Title: dependency&#45;cruiser output Pages: 1 -->
<svg width="540pt" height="706pt"
 viewBox="0.00 0.00 540.00 706.00" xmlns="http://www.w3.org/2000/svg" xmlns:xlink="http://www.w3.org/1999/xlink">
<g id="graph0" class="graph" transform="scale(1 1) rotate(0) translate(4 702)">
<title>dependency&#45;cruiser output</title>
<polygon fill="white" stroke="transparent" points="-4,4 -4,-702 536,-702 536,4 -4,4"/>
<g id="clust1" class="cluster">
<title>cluster_src</title>
<path fill="#ffffff" stroke="black" stroke-width="2" d="M20,-8C20,-8 512,-8 512,-8 518,-8 524,-14 524,-20 524,-20 524,-678 524,-678 524,-684 518,-690 512,-690 512,-690 20,-690 20,-690 14,-690 8,-684 8,-678 8,-678 8,-20 8,-20 8,-14 14,-8 20,-8"/>
<text text-anchor="middle" x="266" y="-678.8" font-family="Helvetica,sans-Serif" font-weight="bold" font-size="9.00">src</text>
</g>
<g id="clust2" class="cluster">
<title>cluster_src/boot</title>
<path fill="#ffffff" stroke="black" stroke-width="2" d="M41.5,-552C41.5,-552 125.5,-552 125.5,-552 131.5,-552 137.5,-558 137.5,-564 137.5,-564 137.5,-652 137.5,-652 137.5,-658 131.5,-664 125.5,-664 125.5,-664 41.5,-664 41.5,-664 35.5,-664 29.5,-658 29.5,-652 29.5,-652 29.5,-564 29.5,-564 29.5,-558 35.5,-552 41.5,-552"/>
<text text-anchor="middle" x="83.5" y="-652.8" font-family="Helvetica,sans-Serif" font-weight="bold" font-size="9.00">boot</text>
</g>
<g id="clust3" class="cluster">
<title>cluster_src/components</title>
<path fill="#ffffff" stroke="black" stroke-width="2" d="M171,-282C171,-282 393,-282 393,-282 399,-282 405,-288 405,-294 405,-294 405,-532 405,-532 405,-538 399,-544 393,-544 393,-544 171,-544 171,-544 165,-544 159,-538 159,-532 159,-532 159,-294 159,-294 159,-288 165,-282 171,-282"/>
<text text-anchor="middle" x="282" y="-532.8" font-family="Helvetica,sans-Serif" font-weight="bold" font-size="9.00">components</text>
</g>
<g id="clust4" class="cluster">
<title>cluster_src/layouts</title>
<path fill="#ffffff" stroke="black" stroke-width="2" d="M40,-462C40,-462 127,-462 127,-462 133,-462 139,-468 139,-474 139,-474 139,-532 139,-532 139,-538 133,-544 127,-544 127,-544 40,-544 40,-544 34,-544 28,-538 28,-532 28,-532 28,-474 28,-474 28,-468 34,-462 40,-462"/>
<text text-anchor="middle" x="83.5" y="-532.8" font-family="Helvetica,sans-Serif" font-weight="bold" font-size="9.00">layouts</text>
</g>
<g id="clust5" class="cluster">
<title>cluster_src/pages</title>
<path fill="#ffffff" stroke="black" stroke-width="2" d="M28,-252C28,-252 139,-252 139,-252 145,-252 151,-258 151,-264 151,-264 151,-442 151,-442 151,-448 145,-454 139,-454 139,-454 28,-454 28,-454 22,-454 16,-448 16,-442 16,-442 16,-264 16,-264 16,-258 22,-252 28,-252"/>
<text text-anchor="middle" x="83.5" y="-442.8" font-family="Helvetica,sans-Serif" font-weight="bold" font-size="9.00">pages</text>
</g>
<g id="clust6" class="cluster">
<title>cluster_src/router</title>
<path fill="#ffffff" stroke="black" stroke-width="2" d="M323,-78C323,-78 488.5,-78 488.5,-78 494.5,-78 500.5,-84 500.5,-90 500.5,-90 500.5,-178 500.5,-178 500.5,-184 494.5,-190 488.5,-190 488.5,-190 323,-190 323,-190 317,-190 311,-184 311,-178 311,-178 311,-90 311,-90 311,-84 317,-78 323,-78"/>
<text text-anchor="middle" x="405.75" y="-178.8" font-family="Helvetica,sans-Serif" font-weight="bold" font-size="9.00">router</text>
</g>
<g id="clust7" class="cluster">
<title>cluster_src/stores</title>
<path fill="#ffffff" stroke="black" stroke-width="2" d="M425,-198C425,-198 504,-198 504,-198 510,-198 516,-204 516,-210 516,-210 516,-448 516,-448 516,-454 510,-460 504,-460 504,-460 425,-460 425,-460 419,-460 413,-454 413,-448 413,-448 413,-210 413,-210 413,-204 419,-198 425,-198"/>
<text text-anchor="middle" x="464.5" y="-448.8" font-family="Helvetica,sans-Serif" font-weight="bold" font-size="9.00">stores</text>
</g>
<!-- src/._App.vue -->
<g id="node1" class="node">
<title>src/._App.vue</title>
<g id="a_node1"><a xlink:href="src/._App.vue" xlink:title="._App.vue">
<path fill="#ccffcc" stroke="black" d="M108.5,-244C108.5,-244 58.5,-244 58.5,-244 55.5,-244 52.5,-241 52.5,-238 52.5,-238 52.5,-232 52.5,-232 52.5,-229 55.5,-226 58.5,-226 58.5,-226 108.5,-226 108.5,-226 111.5,-226 114.5,-229 114.5,-232 114.5,-232 114.5,-238 114.5,-238 114.5,-241 111.5,-244 108.5,-244"/>
<text text-anchor="start" x="60.5" y="-232.8" font-family="Helvetica,sans-Serif" font-size="9.00">._App.vue</text>
</a>
</g>
</g>
<!-- src/._env.d.ts -->
<g id="node2" class="node">
<title>src/._env.d.ts</title>
<g id="a_node2"><a xlink:href="src/._env.d.ts" xlink:title="._env.d.ts">
<path fill="#ccffcc" stroke="black" d="M107.5,-214C107.5,-214 59.5,-214 59.5,-214 56.5,-214 53.5,-211 53.5,-208 53.5,-208 53.5,-202 53.5,-202 53.5,-199 56.5,-196 59.5,-196 59.5,-196 107.5,-196 107.5,-196 110.5,-196 113.5,-199 113.5,-202 113.5,-202 113.5,-208 113.5,-208 113.5,-211 110.5,-214 107.5,-214"/>
<text text-anchor="start" x="61.5" y="-202.8" font-family="Helvetica,sans-Serif" font-size="9.00">._env.d.ts</text>
</a>
</g>
</g>
<!-- src/._quasar.d.ts -->
<g id="node3" class="node">
<title>src/._quasar.d.ts</title>
<g id="a_node3"><a xlink:href="src/._quasar.d.ts" xlink:title="._quasar.d.ts">
<path fill="#ccffcc" stroke="black" d="M114.5,-184C114.5,-184 52.5,-184 52.5,-184 49.5,-184 46.5,-181 46.5,-178 46.5,-178 46.5,-172 46.5,-172 46.5,-169 49.5,-166 52.5,-166 52.5,-166 114.5,-166 114.5,-166 117.5,-166 120.5,-169 120.5,-172 120.5,-172 120.5,-178 120.5,-178 120.5,-181 117.5,-184 114.5,-184"/>
<text text-anchor="start" x="54.5" y="-172.8" font-family="Helvetica,sans-Serif" font-size="9.00">._quasar.d.ts</text>
</a>
</g>
</g>
<!-- src/._shims&#45;vue.d.ts -->
<g id="node4" class="node">
<title>src/._shims&#45;vue.d.ts</title>
<g id="a_node4"><a xlink:href="src/._shims-vue.d.ts" xlink:title="._shims&#45;vue.d.ts">
<path fill="#ccffcc" stroke="black" d="M122.5,-154C122.5,-154 44.5,-154 44.5,-154 41.5,-154 38.5,-151 38.5,-148 38.5,-148 38.5,-142 38.5,-142 38.5,-139 41.5,-136 44.5,-136 44.5,-136 122.5,-136 122.5,-136 125.5,-136 128.5,-139 128.5,-142 128.5,-142 128.5,-148 128.5,-148 128.5,-151 125.5,-154 122.5,-154"/>
<text text-anchor="start" x="46.5" y="-142.8" font-family="Helvetica,sans-Serif" font-size="9.00">._shims&#45;vue.d.ts</text>
</a>
</g>
</g>
<!-- src/App.vue -->
<g id="node5" class="node">
<title>src/App.vue</title>
<g id="a_node5"><a xlink:href="src/App.vue" xlink:title="App.vue">
<path fill="#ccffcc" stroke="black" d="M104.5,-124C104.5,-124 62.5,-124 62.5,-124 59.5,-124 56.5,-121 56.5,-118 56.5,-118 56.5,-112 56.5,-112 56.5,-109 59.5,-106 62.5,-106 62.5,-106 104.5,-106 104.5,-106 107.5,-106 110.5,-109 110.5,-112 110.5,-112 110.5,-118 110.5,-118 110.5,-121 107.5,-124 104.5,-124"/>
<text text-anchor="start" x="64.5" y="-112.8" font-family="Helvetica,sans-Serif" font-size="9.00">App.vue</text>
</a>
</g>
</g>
<!-- src/boot/._axios.ts -->
<g id="node6" class="node">
<title>src/boot/._axios.ts</title>
<g id="a_node6"><a xlink:href="src/boot/._axios.ts" xlink:title="._axios.ts">
<path fill="#ccffcc" stroke="black" d="M106.5,-638C106.5,-638 60.5,-638 60.5,-638 57.5,-638 54.5,-635 54.5,-632 54.5,-632 54.5,-626 54.5,-626 54.5,-623 57.5,-620 60.5,-620 60.5,-620 106.5,-620 106.5,-620 109.5,-620 112.5,-623 112.5,-626 112.5,-626 112.5,-632 112.5,-632 112.5,-635 109.5,-638 106.5,-638"/>
<text text-anchor="start" x="62.5" y="-626.8" font-family="Helvetica,sans-Serif" font-size="9.00">._axios.ts</text>
</a>
</g>
</g>
<!-- src/boot/axios.ts -->
<g id="node7" class="node">
<title>src/boot/axios.ts</title>
<g id="a_node7"><a xlink:href="src/boot/axios.ts" xlink:title="axios.ts">
<path fill="#ccffcc" stroke="black" d="M104.5,-608C104.5,-608 62.5,-608 62.5,-608 59.5,-608 56.5,-605 56.5,-602 56.5,-602 56.5,-596 56.5,-596 56.5,-593 59.5,-590 62.5,-590 62.5,-590 104.5,-590 104.5,-590 107.5,-590 110.5,-593 110.5,-596 110.5,-596 110.5,-602 110.5,-602 110.5,-605 107.5,-608 104.5,-608"/>
<text text-anchor="start" x="66.5" y="-596.8" font-family="Helvetica,sans-Serif" font-size="9.00">axios.ts</text>
</a>
</g>
</g>
<!-- src/boot/notify&#45;defaults.ts -->
<g id="node8" class="node">
<title>src/boot/notify&#45;defaults.ts</title>
<g id="a_node8"><a xlink:href="src/boot/notify-defaults.ts" xlink:title="notify&#45;defaults.ts">
<path fill="#ccffcc" stroke="black" d="M123.5,-578C123.5,-578 43.5,-578 43.5,-578 40.5,-578 37.5,-575 37.5,-572 37.5,-572 37.5,-566 37.5,-566 37.5,-563 40.5,-560 43.5,-560 43.5,-560 123.5,-560 123.5,-560 126.5,-560 129.5,-563 129.5,-566 129.5,-566 129.5,-572 129.5,-572 129.5,-575 126.5,-578 123.5,-578"/>
<text text-anchor="start" x="45.5" y="-566.8" font-family="Helvetica,sans-Serif" font-size="9.00">notify&#45;defaults.ts</text>
</a>
</g>
</g>
<!-- src/components/._models.ts -->
<g id="node9" class="node">
<title>src/components/._models.ts</title>
<g id="a_node9"><a xlink:href="src/components/._models.ts" xlink:title="._models.ts">
<path fill="#ccffcc" stroke="black" d="M257.5,-518C257.5,-518 201.5,-518 201.5,-518 198.5,-518 195.5,-515 195.5,-512 195.5,-512 195.5,-506 195.5,-506 195.5,-503 198.5,-500 201.5,-500 201.5,-500 257.5,-500 257.5,-500 260.5,-500 263.5,-503 263.5,-506 263.5,-506 263.5,-512 263.5,-512 263.5,-515 260.5,-518 257.5,-518"/>
<text text-anchor="start" x="203.5" y="-506.8" font-family="Helvetica,sans-Serif" font-size="9.00">._models.ts</text>
</a>
</g>
</g>
<!-- src/components/SelectTokenModal.vue -->
<g id="node10" class="node">
<title>src/components/SelectTokenModal.vue</title>
<g id="a_node10"><a xlink:href="src/components/SelectTokenModal.vue" xlink:title="SelectTokenModal.vue">
<path fill="#41f083" stroke="black" d="M281.5,-398C281.5,-398 177.5,-398 177.5,-398 174.5,-398 171.5,-395 171.5,-392 171.5,-392 171.5,-386 171.5,-386 171.5,-383 174.5,-380 177.5,-380 177.5,-380 281.5,-380 281.5,-380 284.5,-380 287.5,-383 287.5,-386 287.5,-386 287.5,-392 287.5,-392 287.5,-395 284.5,-398 281.5,-398"/>
<text text-anchor="start" x="179.5" y="-386.8" font-family="Helvetica,sans-Serif" font-size="9.00">SelectTokenModal.vue</text>
</a>
</g>
</g>
<!-- src/stores/cauth -->
<g id="node11" class="node">
<title>src/stores/cauth</title>
<g id="a_node11"><a xlink:title="cauth">
<path fill="#ffffcc" stroke="black" d="M485.5,-404C485.5,-404 443.5,-404 443.5,-404 440.5,-404 437.5,-401 437.5,-398 437.5,-398 437.5,-392 437.5,-392 437.5,-389 440.5,-386 443.5,-386 443.5,-386 485.5,-386 485.5,-386 488.5,-386 491.5,-389 491.5,-392 491.5,-392 491.5,-398 491.5,-398 491.5,-401 488.5,-404 485.5,-404"/>
<text text-anchor="start" x="451" y="-392.8" font-family="Helvetica,sans-Serif" font-size="9.00">cauth</text>
</a>
</g>
</g>
<!-- src/components/SelectTokenModal.vue&#45;&gt;src/stores/cauth -->
<g id="edge1" class="edge">
<title>src/components/SelectTokenModal.vue&#45;&gt;src/stores/cauth</title>
<path fill="none" stroke="#000000" stroke-width="2" stroke-opacity="0.200000" d="M287.8,-390.48C332.89,-391.64 394.09,-393.21 431.09,-394.17"/>
<polygon fill="#000000" fill-opacity="0.200000" stroke="#000000" stroke-width="2" stroke-opacity="0.200000" points="431.21,-396.27 437.26,-394.32 431.31,-392.07 431.21,-396.27"/>
</g>
<!-- src/components/SignInButton.vue -->
<g id="node12" class="node">
<title>src/components/SignInButton.vue</title>
<g id="a_node12"><a xlink:href="src/components/SignInButton.vue" xlink:title="SignInButton.vue">
<path fill="#41f083" stroke="black" d="M271.5,-368C271.5,-368 187.5,-368 187.5,-368 184.5,-368 181.5,-365 181.5,-362 181.5,-362 181.5,-356 181.5,-356 181.5,-353 184.5,-350 187.5,-350 187.5,-350 271.5,-350 271.5,-350 274.5,-350 277.5,-353 277.5,-356 277.5,-356 277.5,-362 277.5,-362 277.5,-365 274.5,-368 271.5,-368"/>
<text text-anchor="start" x="189.5" y="-356.8" font-family="Helvetica,sans-Serif" font-size="9.00">SignInButton.vue</text>
</a>
</g>
</g>
<!-- src/components/SignInButton.vue&#45;&gt;src/stores/cauth -->
<g id="edge3" class="edge">
<title>src/components/SignInButton.vue&#45;&gt;src/stores/cauth</title>
<path fill="none" stroke="#000000" stroke-width="2" stroke-opacity="0.200000" d="M272.96,-368.08C283.41,-370.17 294.59,-372.28 305,-374 349.22,-381.32 360.57,-381.07 405,-387 413.42,-388.12 422.52,-389.36 430.98,-390.51"/>
<polygon fill="#000000" fill-opacity="0.200000" stroke="#000000" stroke-width="2" stroke-opacity="0.200000" points="431.07,-392.65 437.3,-391.38 431.64,-388.48 431.07,-392.65"/>
</g>
<!-- src/components/SignInModal.vue -->
<g id="node13" class="node">
<title>src/components/SignInModal.vue</title>
<g id="a_node13"><a xlink:href="src/components/SignInModal.vue" xlink:title="SignInModal.vue">
<path fill="#41f083" stroke="black" d="M391,-368C391,-368 311,-368 311,-368 308,-368 305,-365 305,-362 305,-362 305,-356 305,-356 305,-353 308,-350 311,-350 311,-350 391,-350 391,-350 394,-350 397,-353 397,-356 397,-356 397,-362 397,-362 397,-365 394,-368 391,-368"/>
<text text-anchor="start" x="313" y="-356.8" font-family="Helvetica,sans-Serif" font-size="9.00">SignInModal.vue</text>
</a>
</g>
</g>
<!-- src/components/SignInButton.vue&#45;&gt;src/components/SignInModal.vue -->
<g id="edge2" class="edge">
<title>src/components/SignInButton.vue&#45;&gt;src/components/SignInModal.vue</title>
<path fill="none" stroke="#000000" stroke-width="2" stroke-opacity="0.200000" d="M277.73,-359C284.52,-359 291.54,-359 298.41,-359"/>
<polygon fill="#000000" fill-opacity="0.200000" stroke="#000000" stroke-width="2" stroke-opacity="0.200000" points="298.67,-361.1 304.67,-359 298.67,-356.9 298.67,-361.1"/>
</g>
<!-- src/components/SignInModal.vue&#45;&gt;src/stores/cauth -->
<g id="edge4" class="edge">
<title>src/components/SignInModal.vue&#45;&gt;src/stores/cauth</title>
<path fill="none" stroke="#000000" stroke-width="2" stroke-opacity="0.200000" d="M379.29,-368.09C387.57,-370.89 396.67,-374.03 405,-377 408.58,-378.28 409.4,-378.79 413,-380 418.92,-381.99 425.27,-383.98 431.4,-385.83"/>
<polygon fill="#000000" fill-opacity="0.200000" stroke="#000000" stroke-width="2" stroke-opacity="0.200000" points="431.09,-387.93 437.44,-387.64 432.29,-383.91 431.09,-387.93"/>
</g>
<!-- src/components/SignInMethodModal.vue -->
<g id="node14" class="node">
<title>src/components/SignInMethodModal.vue</title>
<g id="a_node14"><a xlink:href="src/components/SignInMethodModal.vue" xlink:title="SignInMethodModal.vue">
<path fill="#ccffcc" stroke="black" d="M286,-428C286,-428 173,-428 173,-428 170,-428 167,-425 167,-422 167,-422 167,-416 167,-416 167,-413 170,-410 173,-410 173,-410 286,-410 286,-410 289,-410 292,-413 292,-416 292,-416 292,-422 292,-422 292,-425 289,-428 286,-428"/>
<text text-anchor="start" x="175" y="-416.8" font-family="Helvetica,sans-Serif" font-size="9.00">SignInMethodModal.vue</text>
</a>
</g>
</g>
<!-- src/components/SignInStatus.vue -->
<g id="node15" class="node">
<title>src/components/SignInStatus.vue</title>
<g id="a_node15"><a xlink:href="src/components/SignInStatus.vue" xlink:title="SignInStatus.vue">
<path fill="#41f083" stroke="black" d="M271,-458C271,-458 188,-458 188,-458 185,-458 182,-455 182,-452 182,-452 182,-446 182,-446 182,-443 185,-440 188,-440 188,-440 271,-440 271,-440 274,-440 277,-443 277,-446 277,-446 277,-452 277,-452 277,-455 274,-458 271,-458"/>
<text text-anchor="start" x="190" y="-446.8" font-family="Helvetica,sans-Serif" font-size="9.00">SignInStatus.vue</text>
</a>
</g>
</g>
<!-- src/components/SignInStatus.vue&#45;&gt;src/stores/cauth -->
<g id="edge5" class="edge">
<title>src/components/SignInStatus.vue&#45;&gt;src/stores/cauth</title>
<path fill="none" stroke="#000000" stroke-width="2" stroke-opacity="0.200000" d="M269.5,-439.96C314.94,-429.43 389.17,-412.23 431.41,-402.44"/>
<polygon fill="#000000" fill-opacity="0.200000" stroke="#000000" stroke-width="2" stroke-opacity="0.200000" points="432.04,-404.45 437.41,-401.05 431.09,-400.36 432.04,-404.45"/>
</g>
<!-- src/components/TodoList.vue -->
<g id="node16" class="node">
<title>src/components/TodoList.vue</title>
<g id="a_node16"><a xlink:href="src/components/TodoList.vue" xlink:title="TodoList.vue">
<path fill="#41f083" stroke="black" d="M259.5,-488C259.5,-488 199.5,-488 199.5,-488 196.5,-488 193.5,-485 193.5,-482 193.5,-482 193.5,-476 193.5,-476 193.5,-473 196.5,-470 199.5,-470 199.5,-470 259.5,-470 259.5,-470 262.5,-470 265.5,-473 265.5,-476 265.5,-476 265.5,-482 265.5,-482 265.5,-485 262.5,-488 259.5,-488"/>
<text text-anchor="start" x="201.5" y="-476.8" font-family="Helvetica,sans-Serif" font-size="9.00">TodoList.vue</text>
</a>
</g>
</g>
<!-- src/stores/todo -->
<g id="node17" class="node">
<title>src/stores/todo</title>
<g id="a_node17"><a xlink:title="todo">
<path fill="#ffffcc" stroke="black" d="M485.5,-434C485.5,-434 443.5,-434 443.5,-434 440.5,-434 437.5,-431 437.5,-428 437.5,-428 437.5,-422 437.5,-422 437.5,-419 440.5,-416 443.5,-416 443.5,-416 485.5,-416 485.5,-416 488.5,-416 491.5,-419 491.5,-422 491.5,-422 491.5,-428 491.5,-428 491.5,-431 488.5,-434 485.5,-434"/>
<text text-anchor="start" x="454" y="-422.8" font-family="Helvetica,sans-Serif" font-size="9.00">todo</text>
</a>
</g>
</g>
<!-- src/components/TodoList.vue&#45;&gt;src/stores/todo -->
<g id="edge6" class="edge">
<title>src/components/TodoList.vue&#45;&gt;src/stores/todo</title>
<path fill="none" stroke="#000000" stroke-width="2" stroke-opacity="0.200000" d="M265.63,-470.86C310.68,-460.42 388.14,-442.46 431.58,-432.4"/>
<polygon fill="#000000" fill-opacity="0.200000" stroke="#000000" stroke-width="2" stroke-opacity="0.200000" points="432.11,-434.43 437.48,-431.03 431.16,-430.34 432.11,-434.43"/>
</g>
<!-- src/components/WalletChoiceModal.vue -->
<g id="node18" class="node">
<title>src/components/WalletChoiceModal.vue</title>
<g id="a_node18"><a xlink:href="src/components/WalletChoiceModal.vue" xlink:title="WalletChoiceModal.vue">
<path fill="#ccffcc" stroke="black" d="M283,-338C283,-338 176,-338 176,-338 173,-338 170,-335 170,-332 170,-332 170,-326 170,-326 170,-323 173,-320 176,-320 176,-320 283,-320 283,-320 286,-320 289,-323 289,-326 289,-326 289,-332 289,-332 289,-335 286,-338 283,-338"/>
<text text-anchor="start" x="178" y="-326.8" font-family="Helvetica,sans-Serif" font-size="9.00">WalletChoiceModal.vue</text>
</a>
</g>
</g>
<!-- src/components/models.ts -->
<g id="node19" class="node">
<title>src/components/models.ts</title>
<g id="a_node19"><a xlink:href="src/components/models.ts" xlink:title="models.ts">
<path fill="#ccffcc" stroke="black" d="M253.5,-308C253.5,-308 205.5,-308 205.5,-308 202.5,-308 199.5,-305 199.5,-302 199.5,-302 199.5,-296 199.5,-296 199.5,-293 202.5,-290 205.5,-290 205.5,-290 253.5,-290 253.5,-290 256.5,-290 259.5,-293 259.5,-296 259.5,-296 259.5,-302 259.5,-302 259.5,-305 256.5,-308 253.5,-308"/>
<text text-anchor="start" x="207.5" y="-296.8" font-family="Helvetica,sans-Serif" font-size="9.00">models.ts</text>
</a>
</g>
</g>
<!-- src/env.d.ts -->
<g id="node20" class="node">
<title>src/env.d.ts</title>
<g id="a_node20"><a xlink:href="src/env.d.ts" xlink:title="env.d.ts">
<path fill="#ccffcc" stroke="black" d="M104.5,-94C104.5,-94 62.5,-94 62.5,-94 59.5,-94 56.5,-91 56.5,-88 56.5,-88 56.5,-82 56.5,-82 56.5,-79 59.5,-76 62.5,-76 62.5,-76 104.5,-76 104.5,-76 107.5,-76 110.5,-79 110.5,-82 110.5,-82 110.5,-88 110.5,-88 110.5,-91 107.5,-94 104.5,-94"/>
<text text-anchor="start" x="65" y="-82.8" font-family="Helvetica,sans-Serif" font-size="9.00">env.d.ts</text>
</a>
</g>
</g>
<!-- src/layouts/._MainLayout.vue -->
<g id="node21" class="node">
<title>src/layouts/._MainLayout.vue</title>
<g id="a_node21"><a xlink:href="src/layouts/._MainLayout.vue" xlink:title="._MainLayout.vue">
<path fill="#ccffcc" stroke="black" d="M125,-518C125,-518 42,-518 42,-518 39,-518 36,-515 36,-512 36,-512 36,-506 36,-506 36,-503 39,-500 42,-500 42,-500 125,-500 125,-500 128,-500 131,-503 131,-506 131,-506 131,-512 131,-512 131,-515 128,-518 125,-518"/>
<text text-anchor="start" x="44" y="-506.8" font-family="Helvetica,sans-Serif" font-size="9.00">._MainLayout.vue</text>
</a>
</g>
</g>
<!-- src/layouts/MainLayout.vue -->
<g id="node22" class="node">
<title>src/layouts/MainLayout.vue</title>
<g id="a_node22"><a xlink:href="src/layouts/MainLayout.vue" xlink:title="MainLayout.vue">
<path fill="#41f083" stroke="black" d="M121.5,-488C121.5,-488 45.5,-488 45.5,-488 42.5,-488 39.5,-485 39.5,-482 39.5,-482 39.5,-476 39.5,-476 39.5,-473 42.5,-470 45.5,-470 45.5,-470 121.5,-470 121.5,-470 124.5,-470 127.5,-473 127.5,-476 127.5,-476 127.5,-482 127.5,-482 127.5,-485 124.5,-488 121.5,-488"/>
<text text-anchor="start" x="47.5" y="-476.8" font-family="Helvetica,sans-Serif" font-size="9.00">MainLayout.vue</text>
</a>
</g>
</g>
<!-- src/layouts/MainLayout.vue&#45;&gt;src/components/SignInStatus.vue -->
<g id="edge7" class="edge">
<title>src/layouts/MainLayout.vue&#45;&gt;src/components/SignInStatus.vue</title>
<path fill="none" stroke="#000000" stroke-width="2" stroke-opacity="0.200000" d="M127.7,-470C143.79,-466.65 162.17,-462.82 178.79,-459.36"/>
<polygon fill="#000000" fill-opacity="0.200000" stroke="#000000" stroke-width="2" stroke-opacity="0.200000" points="179.38,-461.38 184.83,-458.1 178.53,-457.27 179.38,-461.38"/>
</g>
<!-- src/pages/._ErrorNotFound.vue -->
<g id="node23" class="node">
<title>src/pages/._ErrorNotFound.vue</title>
<g id="a_node23"><a xlink:href="src/pages/._ErrorNotFound.vue" xlink:title="._ErrorNotFound.vue">
<path fill="#ccffcc" stroke="black" d="M132.5,-428C132.5,-428 34.5,-428 34.5,-428 31.5,-428 28.5,-425 28.5,-422 28.5,-422 28.5,-416 28.5,-416 28.5,-413 31.5,-410 34.5,-410 34.5,-410 132.5,-410 132.5,-410 135.5,-410 138.5,-413 138.5,-416 138.5,-416 138.5,-422 138.5,-422 138.5,-425 135.5,-428 132.5,-428"/>
<text text-anchor="start" x="36.5" y="-416.8" font-family="Helvetica,sans-Serif" font-size="9.00">._ErrorNotFound.vue</text>
</a>
</g>
</g>
<!-- src/pages/._IndexPage.vue -->
<g id="node24" class="node">
<title>src/pages/._IndexPage.vue</title>
<g id="a_node24"><a xlink:href="src/pages/._IndexPage.vue" xlink:title="._IndexPage.vue">
<path fill="#ccffcc" stroke="black" d="M123,-398C123,-398 44,-398 44,-398 41,-398 38,-395 38,-392 38,-392 38,-386 38,-386 38,-383 41,-380 44,-380 44,-380 123,-380 123,-380 126,-380 129,-383 129,-386 129,-386 129,-392 129,-392 129,-395 126,-398 123,-398"/>
<text text-anchor="start" x="46" y="-386.8" font-family="Helvetica,sans-Serif" font-size="9.00">._IndexPage.vue</text>
</a>
</g>
</g>
<!-- src/pages/ErrorNotFound.vue -->
<g id="node25" class="node">
<title>src/pages/ErrorNotFound.vue</title>
<g id="a_node25"><a xlink:href="src/pages/ErrorNotFound.vue" xlink:title="ErrorNotFound.vue">
<path fill="#ccffcc" stroke="black" d="M128.5,-368C128.5,-368 38.5,-368 38.5,-368 35.5,-368 32.5,-365 32.5,-362 32.5,-362 32.5,-356 32.5,-356 32.5,-353 35.5,-350 38.5,-350 38.5,-350 128.5,-350 128.5,-350 131.5,-350 134.5,-353 134.5,-356 134.5,-356 134.5,-362 134.5,-362 134.5,-365 131.5,-368 128.5,-368"/>
<text text-anchor="start" x="40.5" y="-356.8" font-family="Helvetica,sans-Serif" font-size="9.00">ErrorNotFound.vue</text>
</a>
</g>
</g>
<!-- src/pages/IndexPage.vue -->
<g id="node26" class="node">
<title>src/pages/IndexPage.vue</title>
<g id="a_node26"><a xlink:href="src/pages/IndexPage.vue" xlink:title="IndexPage.vue">
<path fill="#41f083" stroke="black" d="M119,-338C119,-338 48,-338 48,-338 45,-338 42,-335 42,-332 42,-332 42,-326 42,-326 42,-323 45,-320 48,-320 48,-320 119,-320 119,-320 122,-320 125,-323 125,-326 125,-326 125,-332 125,-332 125,-335 122,-338 119,-338"/>
<text text-anchor="start" x="50" y="-326.8" font-family="Helvetica,sans-Serif" font-size="9.00">IndexPage.vue</text>
</a>
</g>
</g>
<!-- src/pages/IndexPage.vue&#45;&gt;src/components/SignInButton.vue -->
<g id="edge8" class="edge">
<title>src/pages/IndexPage.vue&#45;&gt;src/components/SignInButton.vue</title>
<path fill="none" stroke="#000000" stroke-width="2" stroke-opacity="0.200000" d="M125.38,-337.52C142.19,-341.02 161.8,-345.1 179.38,-348.77"/>
<polygon fill="#000000" fill-opacity="0.200000" stroke="#000000" stroke-width="2" stroke-opacity="0.200000" points="178.95,-350.82 185.26,-349.99 179.81,-346.71 178.95,-350.82"/>
</g>
<!-- src/pages/SecurePage.vue -->
<g id="node27" class="node">
<title>src/pages/SecurePage.vue</title>
<g id="a_node27"><a xlink:href="src/pages/SecurePage.vue" xlink:title="SecurePage.vue">
<path fill="#ccffcc" stroke="black" d="M122,-308C122,-308 45,-308 45,-308 42,-308 39,-305 39,-302 39,-302 39,-296 39,-296 39,-293 42,-290 45,-290 45,-290 122,-290 122,-290 125,-290 128,-293 128,-296 128,-296 128,-302 128,-302 128,-305 125,-308 122,-308"/>
<text text-anchor="start" x="47" y="-296.8" font-family="Helvetica,sans-Serif" font-size="9.00">SecurePage.vue</text>
</a>
</g>
</g>
<!-- src/pages/UnauthorizedPage.vue -->
<g id="node28" class="node">
<title>src/pages/UnauthorizedPage.vue</title>
<g id="a_node28"><a xlink:href="src/pages/UnauthorizedPage.vue" xlink:title="UnauthorizedPage.vue">
<path fill="#ccffcc" stroke="black" d="M137,-278C137,-278 30,-278 30,-278 27,-278 24,-275 24,-272 24,-272 24,-266 24,-266 24,-263 27,-260 30,-260 30,-260 137,-260 137,-260 140,-260 143,-263 143,-266 143,-266 143,-272 143,-272 143,-275 140,-278 137,-278"/>
<text text-anchor="start" x="32" y="-266.8" font-family="Helvetica,sans-Serif" font-size="9.00">UnauthorizedPage.vue</text>
</a>
</g>
</g>
<!-- src/quasar.d.ts -->
<g id="node29" class="node">
<title>src/quasar.d.ts</title>
<g id="a_node29"><a xlink:href="src/quasar.d.ts" xlink:title="quasar.d.ts">
<path fill="#ccffcc" stroke="black" d="M111,-64C111,-64 56,-64 56,-64 53,-64 50,-61 50,-58 50,-58 50,-52 50,-52 50,-49 53,-46 56,-46 56,-46 111,-46 111,-46 114,-46 117,-49 117,-52 117,-52 117,-58 117,-58 117,-61 114,-64 111,-64"/>
<text text-anchor="start" x="58" y="-52.8" font-family="Helvetica,sans-Serif" font-size="9.00">quasar.d.ts</text>
</a>
</g>
</g>
<!-- src/router/._index.ts -->
<g id="node30" class="node">
<title>src/router/._index.ts</title>
<g id="a_node30"><a xlink:href="src/router/._index.ts" xlink:title="._index.ts">
<path fill="#ccffcc" stroke="black" d="M375,-164C375,-164 327,-164 327,-164 324,-164 321,-161 321,-158 321,-158 321,-152 321,-152 321,-149 324,-146 327,-146 327,-146 375,-146 375,-146 378,-146 381,-149 381,-152 381,-152 381,-158 381,-158 381,-161 378,-164 375,-164"/>
<text text-anchor="start" x="329" y="-152.8" font-family="Helvetica,sans-Serif" font-size="9.00">._index.ts</text>
</a>
</g>
</g>
<!-- src/router/._routes.ts -->
<g id="node31" class="node">
<title>src/router/._routes.ts</title>
<g id="a_node31"><a xlink:href="src/router/._routes.ts" xlink:title="._routes.ts">
<path fill="#ccffcc" stroke="black" d="M377,-134C377,-134 325,-134 325,-134 322,-134 319,-131 319,-128 319,-128 319,-122 319,-122 319,-119 322,-116 325,-116 325,-116 377,-116 377,-116 380,-116 383,-119 383,-122 383,-122 383,-128 383,-128 383,-131 380,-134 377,-134"/>
<text text-anchor="start" x="327" y="-122.8" font-family="Helvetica,sans-Serif" font-size="9.00">._routes.ts</text>
</a>
</g>
</g>
<!-- src/router/index.ts -->
<g id="node32" class="node">
<title>src/router/index.ts</title>
<g id="a_node32"><a xlink:href="src/router/index.ts" xlink:title="index.ts">
<path fill="#ddfeff" stroke="black" d="M372,-104C372,-104 330,-104 330,-104 327,-104 324,-101 324,-98 324,-98 324,-92 324,-92 324,-89 327,-86 330,-86 330,-86 372,-86 372,-86 375,-86 378,-89 378,-92 378,-92 378,-98 378,-98 378,-101 375,-104 372,-104"/>
<text text-anchor="start" x="332.5" y="-92.8" font-family="Helvetica,sans-Serif" font-size="9.00">index.ts</text>
</a>
</g>
</g>
<!-- src/router/index.ts&#45;&gt;src/stores/cauth -->
<g id="edge10" class="edge">
<title>src/router/index.ts&#45;&gt;src/stores/cauth</title>
<path fill="none" stroke="#000000" stroke-width="2" stroke-opacity="0.200000" d="M378.02,-96.03C388.03,-97.84 398.59,-101.78 405,-110 423.46,-133.67 394.7,-356.21 413,-380 417.53,-385.89 424.27,-389.55 431.37,-391.81"/>
<polygon fill="#000000" fill-opacity="0.200000" stroke="#000000" stroke-width="2" stroke-opacity="0.200000" points="431.03,-393.89 437.37,-393.39 432.1,-389.83 431.03,-393.89"/>
</g>
<!-- src/router/routes.ts -->
<g id="node33" class="node">
<title>src/router/routes.ts</title>
<g id="a_node33"><a xlink:href="src/router/routes.ts" xlink:title="routes.ts">
<path fill="#ddfeff" stroke="black" d="M486.5,-104C486.5,-104 442.5,-104 442.5,-104 439.5,-104 436.5,-101 436.5,-98 436.5,-98 436.5,-92 436.5,-92 436.5,-89 439.5,-86 442.5,-86 442.5,-86 486.5,-86 486.5,-86 489.5,-86 492.5,-89 492.5,-92 492.5,-92 492.5,-98 492.5,-98 492.5,-101 489.5,-104 486.5,-104"/>
<text text-anchor="start" x="444.5" y="-92.8" font-family="Helvetica,sans-Serif" font-size="9.00">routes.ts</text>
</a>
</g>
</g>
<!-- src/router/index.ts&#45;&gt;src/router/routes.ts -->
<g id="edge9" class="edge">
<title>src/router/index.ts&#45;&gt;src/router/routes.ts</title>
<path fill="none" stroke="#000000" stroke-width="2" stroke-opacity="0.200000" d="M378.14,-95C393.6,-95 413.33,-95 429.93,-95"/>
<polygon fill="#000000" fill-opacity="0.200000" stroke="#000000" stroke-width="2" stroke-opacity="0.200000" points="430.36,-97.1 436.36,-95 430.36,-92.9 430.36,-97.1"/>
</g>
<!-- src/shims&#45;vue.d.ts -->
<g id="node34" class="node">
<title>src/shims&#45;vue.d.ts</title>
<g id="a_node34"><a xlink:href="src/shims-vue.d.ts" xlink:title="shims&#45;vue.d.ts">
<path fill="#ccffcc" stroke="black" d="M119,-34C119,-34 48,-34 48,-34 45,-34 42,-31 42,-28 42,-28 42,-22 42,-22 42,-19 45,-16 48,-16 48,-16 119,-16 119,-16 122,-16 125,-19 125,-22 125,-22 125,-28 125,-28 125,-31 122,-34 119,-34"/>
<text text-anchor="start" x="50" y="-22.8" font-family="Helvetica,sans-Serif" font-size="9.00">shims&#45;vue.d.ts</text>
</a>
</g>
</g>
<!-- src/stores/._index.ts -->
<g id="node35" class="node">
<title>src/stores/._index.ts</title>
<g id="a_node35"><a xlink:href="src/stores/._index.ts" xlink:title="._index.ts">
<path fill="#ccffcc" stroke="black" d="M488.5,-374C488.5,-374 440.5,-374 440.5,-374 437.5,-374 434.5,-371 434.5,-368 434.5,-368 434.5,-362 434.5,-362 434.5,-359 437.5,-356 440.5,-356 440.5,-356 488.5,-356 488.5,-356 491.5,-356 494.5,-359 494.5,-362 494.5,-362 494.5,-368 494.5,-368 494.5,-371 491.5,-374 488.5,-374"/>
<text text-anchor="start" x="442.5" y="-362.8" font-family="Helvetica,sans-Serif" font-size="9.00">._index.ts</text>
</a>
</g>
</g>
<!-- src/stores/._store&#45;flag.d.ts -->
<g id="node36" class="node">
<title>src/stores/._store&#45;flag.d.ts</title>
<g id="a_node36"><a xlink:href="src/stores/._store-flag.d.ts" xlink:title="._store&#45;flag.d.ts">
<path fill="#ccffcc" stroke="black" d="M502,-344C502,-344 427,-344 427,-344 424,-344 421,-341 421,-338 421,-338 421,-332 421,-332 421,-329 424,-326 427,-326 427,-326 502,-326 502,-326 505,-326 508,-329 508,-332 508,-332 508,-338 508,-338 508,-341 505,-344 502,-344"/>
<text text-anchor="start" x="429" y="-332.8" font-family="Helvetica,sans-Serif" font-size="9.00">._store&#45;flag.d.ts</text>
</a>
</g>
</g>
<!-- src/stores/cauth.ts -->
<g id="node37" class="node">
<title>src/stores/cauth.ts</title>
<g id="a_node37"><a xlink:href="src/stores/cauth.ts" xlink:title="cauth.ts">
<path fill="#ccffcc" stroke="black" d="M485.5,-314C485.5,-314 443.5,-314 443.5,-314 440.5,-314 437.5,-311 437.5,-308 437.5,-308 437.5,-302 437.5,-302 437.5,-299 440.5,-296 443.5,-296 443.5,-296 485.5,-296 485.5,-296 488.5,-296 491.5,-299 491.5,-302 491.5,-302 491.5,-308 491.5,-308 491.5,-311 488.5,-314 485.5,-314"/>
<text text-anchor="start" x="445.5" y="-302.8" font-family="Helvetica,sans-Serif" font-size="9.00">cauth.ts</text>
</a>
</g>
</g>
<!-- src/stores/index.ts -->
<g id="node38" class="node">
<title>src/stores/index.ts</title>
<g id="a_node38"><a xlink:href="src/stores/index.ts" xlink:title="index.ts">
<path fill="#ccffcc" stroke="black" d="M485.5,-284C485.5,-284 443.5,-284 443.5,-284 440.5,-284 437.5,-281 437.5,-278 437.5,-278 437.5,-272 437.5,-272 437.5,-269 440.5,-266 443.5,-266 443.5,-266 485.5,-266 485.5,-266 488.5,-266 491.5,-269 491.5,-272 491.5,-272 491.5,-278 491.5,-278 491.5,-281 488.5,-284 485.5,-284"/>
<text text-anchor="start" x="446" y="-272.8" font-family="Helvetica,sans-Serif" font-size="9.00">index.ts</text>
</a>
</g>
</g>
<!-- src/stores/store&#45;flag.d.ts -->
<g id="node39" class="node">
<title>src/stores/store&#45;flag.d.ts</title>
<g id="a_node39"><a xlink:href="src/stores/store-flag.d.ts" xlink:title="store&#45;flag.d.ts">
<path fill="#ccffcc" stroke="black" d="M498.5,-254C498.5,-254 430.5,-254 430.5,-254 427.5,-254 424.5,-251 424.5,-248 424.5,-248 424.5,-242 424.5,-242 424.5,-239 427.5,-236 430.5,-236 430.5,-236 498.5,-236 498.5,-236 501.5,-236 504.5,-239 504.5,-242 504.5,-242 504.5,-248 504.5,-248 504.5,-251 501.5,-254 498.5,-254"/>
<text text-anchor="start" x="432.5" y="-242.8" font-family="Helvetica,sans-Serif" font-size="9.00">store&#45;flag.d.ts</text>
</a>
</g>
</g>
<!-- src/stores/todo.ts -->
<g id="node40" class="node">
<title>src/stores/todo.ts</title>
<g id="a_node40"><a xlink:href="src/stores/todo.ts" xlink:title="todo.ts">
<path fill="#ccffcc" stroke="black" d="M485.5,-224C485.5,-224 443.5,-224 443.5,-224 440.5,-224 437.5,-221 437.5,-218 437.5,-218 437.5,-212 437.5,-212 437.5,-209 440.5,-206 443.5,-206 443.5,-206 485.5,-206 485.5,-206 488.5,-206 491.5,-209 491.5,-212 491.5,-212 491.5,-218 491.5,-218 491.5,-221 488.5,-224 485.5,-224"/>
<text text-anchor="start" x="448.5" y="-212.8" font-family="Helvetica,sans-Serif" font-size="9.00">todo.ts</text>
</a>
</g>
</g>
</g>
</svg>
